<?xml version="1.0" encoding="UTF-8"?>
<svg width="13px" height="12px" viewBox="0 0 13 12" version="1.1" xmlns="http://www.w3.org/2000/svg" xmlns:xlink="http://www.w3.org/1999/xlink">
    <!-- Generator: Sketch 50.2 (55047) - http://www.bohemiancoding.com/sketch -->
    <title>Shape</title>
    <desc>Created with Sketch.</desc>
    <defs></defs>
    <g id="illustración" stroke="none" stroke-width="1" fill="none" fill-rule="evenodd">
        <g id="paleta" transform="translate(-199.000000, -339.000000)" fill="#FF5042" fill-rule="nonzero">
            <g id="Group" transform="translate(0.000000, 115.000000)">
                <path d="M211.999898,229.699995 C211.999898,229.561155 211.913259,229.376805 211.825354,229.287345 L206.873066,224.187267 C206.641852,223.955577 206.267266,223.928727 205.997714,224.163867 C205.756719,224.374077 205.750714,224.784057 205.973571,225.012327 L209.948928,229.099875 L199.619048,229.099875 C199.277148,229.099875 199,229.368495 199,229.699875 C199,230.031255 199.277148,230.299905 199.619048,230.299905 L209.948928,230.299905 L205.973571,234.387465 C205.750745,234.615705 205.766562,235.015605 205.997714,235.235895 C206.241761,235.468455 206.64538,235.447755 206.873066,235.212495 L211.825354,230.112435 C211.970865,229.974105 211.997453,229.840875 211.999898,229.699995 Z" id="Shape"></path>
            </g>
        </g>
    </g>
</svg>