<svg width="485" height="443" xmlns="http://www.w3.org/2000/svg" xmlns:xlink="http://www.w3.org/1999/xlink"><defs><path id="b" d="M0 0h127.129v189.721H0z"/><filter x="-11.4%" y="-6.6%" width="122.8%" height="115.3%" filterUnits="objectBoundingBox" id="a"><feOffset dy="2" in="SourceAlpha" result="shadowOffsetOuter1"/><feGaussianBlur stdDeviation="4.5" in="shadowOffsetOuter1" result="shadowBlurOuter1"/><feColorMatrix values="0 0 0 0 0 0 0 0 0 0 0 0 0 0 0 0 0 0 0.349581069 0" in="shadowBlurOuter1"/></filter><linearGradient x1="50%" y1="0%" x2="50%" y2="100%" id="e"><stop stop-color="#FF5042" offset="0%"/><stop stop-color="#DA3628" offset="100%"/></linearGradient><path d="M20.989 19.969h30.27c2.528-1.557 1.815 17.835 1.815 18.946 0 1.11 3.518 2.359 6.058-1.614s-.548-12.205 3.407-18.89h7.77c-3.511 4.524-4.482 9.496-2.914 14.917 2.352 8.132 1.78 19.834-8.263 24.677 0 3.348 1.136 4.847 3.407 4.497 4.282-5.157 8.204-8.003 11.767-8.538 5.344-.802 14.534-.412 15.373 15.524.56 10.624-8.02 20.565-25.737 29.824-5.097 5.728-13.89 9.224-26.382 10.486-18.737 1.894-36.427-11.43-37.498-25.59C-1.009 70.05 12.085 64.08 15.896 53.163c3.811-10.917 1.43-33.193 5.093-33.193zm49.905 57.876c.594 3.406-1.294 11.523.745 10.903 2.038-.619 11.72-7.089 13.573-15.252 1.853-8.162-1.386-15.459-7.666-15.459-6.279 0-10.264 6.66-10.743 9.355-.48 2.695 3.497 7.048 4.091 10.453z" id="d"/><filter x="-12.3%" y="-10.9%" width="124.5%" height="124%" filterUnits="objectBoundingBox" id="c"><feOffset dy="1" in="SourceAlpha" result="shadowOffsetOuter1"/><feGaussianBlur stdDeviation="3.5" in="shadowOffsetOuter1" result="shadowBlurOuter1"/><feColorMatrix values="0 0 0 0 0 0 0 0 0 0 0 0 0 0 0 0 0 0 0.29 0" in="shadowBlurOuter1"/></filter><path d="M20.79 21.941c-1.15-.3-1.804-.804-1.964-1.516-.159-.711.195-1.549 1.063-2.513-.227-6.53 3.761-10.282 11.964-11.258 1.235-1.664-1.873-2.052-.78-3.814C32.167 1.077 33.308 0 35.981 0c2.674 0 4.234 1.266 5.13 2.84.895 1.573-2.629 2.18-1.342 3.814 8.416.604 12.818 4.356 13.206 11.258.552 1.316.734 2.281.546 2.895-.187.614-.78.992-1.778 1.134H20.79z" id="g"/><filter x="-31.6%" y="-45.6%" width="163.2%" height="200.3%" filterUnits="objectBoundingBox" id="f"><feOffset dy="1" in="SourceAlpha" result="shadowOffsetOuter1"/><feGaussianBlur stdDeviation="3.5" in="shadowOffsetOuter1" result="shadowBlurOuter1"/><feColorMatrix values="0 0 0 0 0 0 0 0 0 0 0 0 0 0 0 0 0 0 0.29 0" in="shadowBlurOuter1"/></filter><path d="M96.715 168.116v60.913c-19.205 15.305-59.32 15.305-64.716 19.11-3.599 2.538-3.599 4.106 0 4.704H171.73c2.755-1.753 2.755-3.32 0-4.704-4.132-2.073-46.133-4.437-58.042-19.11v-60.913H96.715z" id="i"/><filter x="-8.7%" y="-13.6%" width="117.3%" height="129.5%" filterUnits="objectBoundingBox" id="h"><feOffset dy="1" in="SourceAlpha" result="shadowOffsetOuter1"/><feGaussianBlur stdDeviation="4" in="shadowOffsetOuter1" result="shadowBlurOuter1"/><feColorMatrix values="0 0 0 0 0 0 0 0 0 0 0 0 0 0 0 0 0 0 0.29 0" in="shadowBlurOuter1"/></filter><path d="M78.882 117.886c-41.52 10.556-64.99 16.51-70.41 17.861-8.13 2.026-13.998 18.038 0 27.53 13.997 9.493 138.45 7.503 154.351 4.16 10.6-2.23 11.876-14.703 3.826-37.42 17.749-72.17 19.466-112.38 5.15-120.634-21.472-12.38-81.663-12.38-107.518 0-17.237 8.253-12.37 44.42 14.6 108.503z" id="k"/><filter x="-13.5%" y="-13.8%" width="127%" height="128.8%" filterUnits="objectBoundingBox" id="j"><feOffset dy="1" in="SourceAlpha" result="shadowOffsetOuter1"/><feGaussianBlur stdDeviation="8" in="shadowOffsetOuter1" result="shadowBlurOuter1"/><feColorMatrix values="0 0 0 0 0 0 0 0 0 0 0 0 0 0 0 0 0 0 0.142663043 0" in="shadowBlurOuter1"/></filter><filter x="-15.9%" y="-18.5%" width="132.3%" height="141.8%" filterUnits="objectBoundingBox" id="l"><feOffset dy="1" in="SourceAlpha" result="shadowOffsetOuter1"/><feGaussianBlur stdDeviation="4" in="shadowOffsetOuter1" result="shadowBlurOuter1"/><feColorMatrix values="0 0 0 0 0 0 0 0 0 0 0 0 0 0 0 0 0 0 0.29 0" in="shadowBlurOuter1" result="shadowMatrixOuter1"/><feMerge><feMergeNode in="shadowMatrixOuter1"/><feMergeNode in="SourceGraphic"/></feMerge></filter><path d="M147.339 25.633c-8.099 5.313-13.595 9.158-16.489 11.535-4.943 4.06-10.225 11.003-12.728 13.057-4.63 3.798-9.121 6.014-11.577 8.83-8.266 9.475-8.77 17.78-13.559 28.766-2.919 6.698-8.34 13.418-11.305 20.393-1.314 3.09-2.542 9.54-4.109 13.586-1.307 3.373-5.404 8.64-7.733 14.645-2.771 7.145-11.005 20.657-8.204 26.445s15.344 17.946 31.351 8.045c10.672-6.6 24.008-30.418 40.009-71.451 20.418-15.919 33.43-28.456 39.038-37.613 5.608-9.156 8.378-17.39 8.31-24.703L147.34 25.633z" id="n"/><filter x="-10.5%" y="-7.7%" width="121%" height="116.8%" filterUnits="objectBoundingBox" id="m"><feOffset dy="1" in="SourceAlpha" result="shadowOffsetOuter1"/><feGaussianBlur stdDeviation="4" in="shadowOffsetOuter1" result="shadowBlurOuter1"/><feColorMatrix values="0 0 0 0 0 0 0 0 0 0 0 0 0 0 0 0 0 0 0.29 0" in="shadowBlurOuter1"/></filter><filter x="-15.9%" y="-18.5%" width="132.3%" height="141.8%" filterUnits="objectBoundingBox" id="o"><feOffset dy="1" in="SourceAlpha" result="shadowOffsetOuter1"/><feGaussianBlur stdDeviation="4" in="shadowOffsetOuter1" result="shadowBlurOuter1"/><feColorMatrix values="0 0 0 0 0 0 0 0 0 0 0 0 0 0 0 0 0 0 0.2909024 0" in="shadowBlurOuter1" result="shadowMatrixOuter1"/><feMerge><feMergeNode in="shadowMatrixOuter1"/><feMergeNode in="SourceGraphic"/></feMerge></filter><path d="M161.868 31.107c.808 2.068-.235 4.29-3.13 6.667-4.943 4.06-10.225 11.003-12.728 13.057-4.63 3.798-9.121 6.014-11.577 8.83-8.266 9.475-8.77 17.78-13.558 28.766-2.92 6.698-8.34 13.418-11.306 20.392-1.313 3.091-2.541 9.541-4.109 13.587-1.306 3.373-5.404 8.64-7.733 14.645-2.77 7.144-11.005 20.657-8.204 26.445s15.344 17.946 31.352 8.045c10.671-6.601 24.007-30.418 40.008-71.451 12.848-13.812 25.86-26.35 39.038-37.613 13.178-11.263 13.373-27.417.585-48.46l-38.638 17.09z" id="q"/><filter x="-10.3%" y="-7.1%" width="120.7%" height="115.5%" filterUnits="objectBoundingBox" id="p"><feOffset dy="1" in="SourceAlpha" result="shadowOffsetOuter1"/><feGaussianBlur stdDeviation="4" in="shadowOffsetOuter1" result="shadowBlurOuter1"/><feColorMatrix values="0 0 0 0 0 0 0 0 0 0 0 0 0 0 0 0 0 0 0.29 0" in="shadowBlurOuter1"/></filter><filter x="-37.5%" y="-25.4%" width="175%" height="161.6%" filterUnits="objectBoundingBox" id="r"><feOffset dy="1" in="SourceAlpha" result="shadowOffsetOuter1"/><feGaussianBlur stdDeviation="8" in="shadowOffsetOuter1" result="shadowBlurOuter1"/><feColorMatrix values="0 0 0 0 0 0 0 0 0 0 0 0 0 0 0 0 0 0 0.0856827446 0" in="shadowBlurOuter1" result="shadowMatrixOuter1"/><feMerge><feMergeNode in="shadowMatrixOuter1"/><feMergeNode in="SourceGraphic"/></feMerge></filter><path d="M54.705 19.08c11.188-1.472 18.555.349 22.1 5.463 5.32 7.672-2.06 27.11 1.441 35.102 3.502 7.991 13.543 17.022 13.543 30.089s-23.921 27.037-26.772 20.234c-2.85-6.803-6.768-19.386-14.675-23.071-7.906-3.685 11.079-37.282 6.893-49.973-2.79-8.46-3.634-14.409-2.53-17.844z" id="t"/><filter x="-40.3%" y="-13.4%" width="180.7%" height="137.6%" filterUnits="objectBoundingBox" id="s"><feOffset dy="5" in="SourceAlpha" result="shadowOffsetOuter1"/><feGaussianBlur stdDeviation="5" in="shadowOffsetOuter1" result="shadowBlurOuter1"/><feColorMatrix values="0 0 0 0 0 0 0 0 0 0 0 0 0 0 0 0 0 0 0.113451087 0" in="shadowBlurOuter1"/></filter><path d="M17.3 8.035c-14.787 0-20.109 9.44-15.912 19.99 1.716 4.312 22.28 3.27 32.386 10.724 4.253 3.136 7.42 10.775 9.501 22.916 16.687-15.393 21.094-29.619 13.22-42.678C44.685-.602 25.525-5.407 17.3 8.035z" id="v"/><filter x="-29%" y="-20.4%" width="158.1%" height="157.2%" filterUnits="objectBoundingBox" id="u"><feOffset dy="5" in="SourceAlpha" result="shadowOffsetOuter1"/><feGaussianBlur stdDeviation="5" in="shadowOffsetOuter1" result="shadowBlurOuter1"/><feColorMatrix values="0 0 0 0 0 0 0 0 0 0 0 0 0 0 0 0 0 0 0.113451087 0" in="shadowBlurOuter1"/></filter><path d="M102.071 3.198c-11.013 3.927-18.09 7.354-21.23 10.28-2.086 1.943-2.067 1.258-5.49 9.878-1.811 4.557-1.468 5.903-3.227 11.91-1.008 3.445-4.59 6.842-6.595 10.628-2.819 5.323-2.7 14.408-3.634 15.334-4.949 4.907-31.752 2.19-37.646 6.008-5.894 3.818-4.743 20.776 0 20.776 10.326 0 49.595 2.304 53.857-1.957 2.84-2.841 6.917-13.995 12.228-33.462-1.468 28.694-2.202 49.992-2.202 63.895 4.968 9.58 57.327 16.385 74.104 7.005 0-13.791-19.686-110.748-21.739-119.015-2.275-4.421-9.685-5.46-22.23-3.116.229 6.14-2.597 9.633-8.477 10.478-5.88.846-8.453-2.035-7.719-8.642z" id="x"/><filter x="-8.8%" y="-9%" width="117.6%" height="119.6%" filterUnits="objectBoundingBox" id="w"><feOffset dy="1" in="SourceAlpha" result="shadowOffsetOuter1"/><feGaussianBlur stdDeviation="4" in="shadowOffsetOuter1" result="shadowBlurOuter1"/><feColorMatrix values="0 0 0 0 0 0 0 0 0 0 0 0 0 0 0 0 0 0 0.29 0" in="shadowBlurOuter1"/></filter><path d="M130.621.105c19.23.769 30.616 15.478 40.81 68.849.416 2.176 2.294 14.228 0 16.802-1.529 1.716-6.234 2.456-14.114 2.22H91.035c-5.262-7.83-5.262-13.65 0-17.461 7.894-5.716 44.112-2.19 50.494-5.01 2.103-2.828.225-5.29-1.263-9.58-2.235-6.44-5.335-8.961-6.091-11.863-.636-2.438-1.906-13.561-2.26-15.049-.748-3.15-4.05-10.126-4.285-12.072-1.009-8.373.661-14.404 2.991-16.836z" id="z"/><filter x="-14.6%" y="-13.1%" width="129.3%" height="128.4%" filterUnits="objectBoundingBox" id="y"><feOffset dy="1" in="SourceAlpha" result="shadowOffsetOuter1"/><feGaussianBlur stdDeviation="4" in="shadowOffsetOuter1" result="shadowBlurOuter1"/><feColorMatrix values="0 0 0 0 0 0 0 0 0 0 0 0 0 0 0 0 0 0 0.29 0" in="shadowBlurOuter1"/></filter><rect id="B" width="82.584" height="71.583" rx="4"/><filter x="-30.3%" y="-32.1%" width="160.5%" height="169.8%" filterUnits="objectBoundingBox" id="A"><feOffset dy="2" in="SourceAlpha" result="shadowOffsetOuter1"/><feGaussianBlur stdDeviation="8" in="shadowOffsetOuter1" result="shadowBlurOuter1"/><feColorMatrix values="0 0 0 0 0 0 0 0 0 0 0 0 0 0 0 0 0 0 0.2 0" in="shadowBlurOuter1"/></filter><path d="M32.908 26.443c-2.171 12.993 3.388 19.252 16.678 18.777.623-1.02.784-1.724.482-2.109-7.268-4.986-9.69-3.279-15.533-18.3-1.627-3.288-3.712-1.612-1.627 1.632z" id="D"/><filter x="-85.2%" y="-60.8%" width="270.5%" height="239.5%" filterUnits="objectBoundingBox" id="C"><feOffset dy="1" in="SourceAlpha" result="shadowOffsetOuter1"/><feGaussianBlur stdDeviation="4" in="shadowOffsetOuter1" result="shadowBlurOuter1"/><feColorMatrix values="0 0 0 0 1 0 0 0 0 1 0 0 0 0 1 0 0 0 1 0" in="shadowBlurOuter1" result="shadowMatrixOuter1"/><feOffset dy="1" in="SourceAlpha" result="shadowOffsetOuter2"/><feGaussianBlur stdDeviation="1.5" in="shadowOffsetOuter2" result="shadowBlurOuter2"/><feColorMatrix values="0 0 0 0 0 0 0 0 0 0 0 0 0 0 0 0 0 0 0.158146513 0" in="shadowBlurOuter2" result="shadowMatrixOuter2"/><feMerge><feMergeNode in="shadowMatrixOuter1"/><feMergeNode in="shadowMatrixOuter2"/></feMerge></filter><path d="M0 5.8c0 20.246 7.058 61.844 14.122 67.108 7.063 5.264 40.946 8.896 57.77 0C88.718 64.012 88.718 29.821 88.718 5.8 72.053 11.52 23.247 13.896 0 5.8z" id="F"/><filter x="-14.1%" y="-15.9%" width="128.2%" height="134.5%" filterUnits="objectBoundingBox" id="E"><feOffset dy="1" in="SourceAlpha" result="shadowOffsetOuter1"/><feGaussianBlur stdDeviation="4" in="shadowOffsetOuter1" result="shadowBlurOuter1"/><feColorMatrix values="0 0 0 0 0 0 0 0 0 0 0 0 0 0 0 0 0 0 0.29 0" in="shadowBlurOuter1"/></filter><path d="M45.003 90.386c-6.326 5.356-12.99 15.99-19.991 31.902l5.571 9.407-9.016 3.03c-.406 14.522 1.928 23.725 7.002 27.61 5.075 3.884 11.874 1.673 20.4-6.634L41.95 142.74c3.835 1.67 7.248 2.506 10.239 2.506.75-10.98.338-21.645-1.238-31.997l-7.706 5.623 5.723-16.867c-.985-9.15-2.306-13.023-3.966-11.618z" id="H"/><filter x="-40.3%" y="-15.5%" width="180.6%" height="133.7%" filterUnits="objectBoundingBox" id="G"><feOffset dy="1" in="SourceAlpha" result="shadowOffsetOuter1"/><feGaussianBlur stdDeviation="4" in="shadowOffsetOuter1" result="shadowBlurOuter1"/><feColorMatrix values="0 0 0 0 0 0 0 0 0 0 0 0 0 0 0 0 0 0 0.29 0" in="shadowBlurOuter1"/></filter><path d="M65.096 14.296C58.795 19.645 53.87 25.57 50.323 32.068l2.892 9.478-5.337-4.018c-1.296 8.983-2.119 15.337-2.47 19.06-.08.858.884 2.593 2.894 5.206-2.28 1.093-3.44 2.122-3.482 3.088-.514 11.776-2.752 19.29 3.907 21.254 11.868 3.5 20.71-2.515 26.526-18.046l-3.808-6.7c1.352-.076 3.518-.114 6.497-.114.748-10.963-1.559-19.013-6.92-24.152l-7.676 5.614 5.7-16.841c-.98-9.137-2.297-13.003-3.95-11.6z" id="J"/><filter x="-36.7%" y="-15.7%" width="173.5%" height="134.2%" filterUnits="objectBoundingBox" id="I"><feOffset dy="1" in="SourceAlpha" result="shadowOffsetOuter1"/><feGaussianBlur stdDeviation="4" in="shadowOffsetOuter1" result="shadowBlurOuter1"/><feColorMatrix values="0 0 0 0 0 0 0 0 0 0 0 0 0 0 0 0 0 0 0.29 0" in="shadowBlurOuter1"/></filter><path d="M82.614 115.915c-6.301 5.348-11.226 11.272-14.773 17.771l2.892 9.479-5.337-4.019c-1.296 8.984-2.12 15.337-2.47 19.06-.08.858.884 2.593 2.893 5.206-2.278 1.093-3.439 2.123-3.481 3.088-.514 11.776-2.752 19.29 3.906 21.254 11.869 3.5 20.711-2.515 26.527-18.046l-3.808-6.7c1.352-.076 3.518-.113 6.496-.113.749-10.963-1.558-19.014-6.92-24.153l-7.675 5.614 5.7-16.84c-.98-9.137-2.297-13.004-3.95-11.601z" id="L"/><filter x="-36.7%" y="-15.7%" width="173.5%" height="134.2%" filterUnits="objectBoundingBox" id="K"><feOffset dy="1" in="SourceAlpha" result="shadowOffsetOuter1"/><feGaussianBlur stdDeviation="4" in="shadowOffsetOuter1" result="shadowBlurOuter1"/><feColorMatrix values="0 0 0 0 0 0 0 0 0 0 0 0 0 0 0 0 0 0 0.29 0" in="shadowBlurOuter1"/></filter><path d="M0 4.116C0 18.743 5.09 48.796 10.182 52.6c5.093 3.803 29.524 6.427 41.655 0 12.13-6.427 12.13-31.13 12.13-48.484-12.014 4.132-47.205 5.85-63.967 0z" id="N"/><filter x="-19.5%" y="-22%" width="139.1%" height="147.7%" filterUnits="objectBoundingBox" id="M"><feOffset dy="1" in="SourceAlpha" result="shadowOffsetOuter1"/><feGaussianBlur stdDeviation="4" in="shadowOffsetOuter1" result="shadowBlurOuter1"/><feColorMatrix values="0 0 0 0 0 0 0 0 0 0 0 0 0 0 0 0 0 0 0.29 0" in="shadowBlurOuter1"/></filter><filter x="-37.8%" y="-25%" width="175.7%" height="154.3%" filterUnits="objectBoundingBox" id="O"><feOffset dy="1" in="SourceAlpha" result="shadowOffsetOuter1"/><feGaussianBlur stdDeviation="4" in="shadowOffsetOuter1" result="shadowBlurOuter1"/><feColorMatrix values="0 0 0 0 0 0 0 0 0 0 0 0 0 0 0 0 0 0 0.29 0" in="shadowBlurOuter1" result="shadowMatrixOuter1"/><feMerge><feMergeNode in="shadowMatrixOuter1"/><feMergeNode in="SourceGraphic"/></feMerge></filter><filter x="-37.8%" y="-25%" width="175.7%" height="154.3%" filterUnits="objectBoundingBox" id="P"><feOffset dy="1" in="SourceAlpha" result="shadowOffsetOuter1"/><feGaussianBlur stdDeviation="4" in="shadowOffsetOuter1" result="shadowBlurOuter1"/><feColorMatrix values="0 0 0 0 0 0 0 0 0 0 0 0 0 0 0 0 0 0 0.29 0" in="shadowBlurOuter1" result="shadowMatrixOuter1"/><feMerge><feMergeNode in="shadowMatrixOuter1"/><feMergeNode in="SourceGraphic"/></feMerge></filter><filter x="-51%" y="-34.3%" width="203.9%" height="175.9%" filterUnits="objectBoundingBox" id="Q"><feOffset dy="1" in="SourceAlpha" result="shadowOffsetOuter1"/><feGaussianBlur stdDeviation="4" in="shadowOffsetOuter1" result="shadowBlurOuter1"/><feColorMatrix values="0 0 0 0 0 0 0 0 0 0 0 0 0 0 0 0 0 0 0.29 0" in="shadowBlurOuter1" result="shadowMatrixOuter1"/><feMerge><feMergeNode in="shadowMatrixOuter1"/><feMergeNode in="SourceGraphic"/></feMerge></filter><filter x="-51%" y="-34.3%" width="203.9%" height="175.9%" filterUnits="objectBoundingBox" id="R"><feOffset dy="1" in="SourceAlpha" result="shadowOffsetOuter1"/><feGaussianBlur stdDeviation="4" in="shadowOffsetOuter1" result="shadowBlurOuter1"/><feColorMatrix values="0 0 0 0 0 0 0 0 0 0 0 0 0 0 0 0 0 0 0.29 0" in="shadowBlurOuter1" result="shadowMatrixOuter1"/><feMerge><feMergeNode in="shadowMatrixOuter1"/><feMergeNode in="SourceGraphic"/></feMerge></filter><path id="T" d="M0 2.503h25.025v26.531H0z"/><filter x="-51.9%" y="-56.5%" width="203.9%" height="198%" filterUnits="objectBoundingBox" id="S"><feOffset dy="-2" in="SourceAlpha" result="shadowOffsetOuter1"/><feGaussianBlur stdDeviation="4" in="shadowOffsetOuter1" result="shadowBlurOuter1"/><feColorMatrix values="0 0 0 0 0 0 0 0 0 0 0 0 0 0 0 0 0 0 0.29 0" in="shadowBlurOuter1"/></filter></defs><g transform="translate(-8 7)" fill="none" fill-rule="evenodd"><ellipse fill="#DEE0E7" cx="285.039" cy="388.202" rx="207.961" ry="7.759"/><g transform="translate(125.127)"><use fill="#000" filter="url(#a)" xlink:href="#b"/><use fill="#FFC283" xlink:href="#b"/></g><path d="M148.312 12.008h7.016v1.609h-2.567v6.796h-1.894v-6.796h-2.555v-1.61zm11.585 1.873c.728 0 1.306.224 1.733.672.428.449.642 1.049.642 1.801v4.059h-1.847v-3.518c0-.408-.114-.73-.342-.967-.228-.236-.537-.354-.93-.354-.455.008-.817.166-1.085.474-.267.308-.401.703-.401 1.183v3.182h-1.847v-8.91h1.847v3.59c.447-.792 1.191-1.196 2.23-1.212zm6.729.012c1.04 0 1.829.3 2.368.9.54.6.81 1.437.81 2.51 0 .192-.004.34-.012.444h-4.63c.104.409.304.727.6.955.296.228.652.342 1.068.342.303 0 .595-.058.875-.174.28-.116.532-.286.756-.51l.971.984c-.328.369-.725.65-1.193.847a4.01 4.01 0 0 1-1.565.294c-.68 0-1.274-.136-1.781-.408a2.863 2.863 0 0 1-1.176-1.153c-.276-.496-.413-1.069-.413-1.717 0-.656.14-1.235.42-1.735.28-.5.671-.889 1.175-1.165.503-.276 1.08-.414 1.727-.414zm1.439 2.762c-.016-.425-.152-.765-.408-1.021-.256-.256-.596-.384-1.02-.384-.4 0-.733.126-1 .378-.269.252-.438.594-.51 1.027h2.938zm9.355-4.647c.855 0 1.619.178 2.29.534a3.874 3.874 0 0 1 1.566 1.489c.371.636.557 1.363.557 2.18 0 .816-.19 1.542-.57 2.179a3.937 3.937 0 0 1-1.589 1.489c-.68.356-1.455.534-2.326.534h-3.49v-8.405h3.562zm.048 6.808c.463 0 .881-.11 1.253-.33.372-.22.662-.527.87-.919.207-.392.311-.84.311-1.345 0-.504-.11-.956-.33-1.357-.22-.4-.52-.71-.899-.93-.38-.22-.81-.33-1.29-.33h-1.63v5.211h1.715zm8.347-4.923c1.04 0 1.829.3 2.369.9.54.6.81 1.437.81 2.51 0 .192-.005.34-.013.444h-4.63c.105.409.305.727.6.955.296.228.652.342 1.068.342.304 0 .596-.058.875-.174.28-.116.532-.286.756-.51l.971.984c-.327.369-.725.65-1.193.847a4.01 4.01 0 0 1-1.565.294c-.68 0-1.273-.136-1.781-.408a2.863 2.863 0 0 1-1.175-1.153c-.276-.496-.414-1.069-.414-1.717 0-.656.14-1.235.42-1.735.28-.5.671-.889 1.175-1.165s1.08-.414 1.727-.414zm1.44 2.762c-.017-.425-.153-.765-.409-1.021-.255-.256-.595-.384-1.019-.384-.4 0-.734.126-1.001.378-.268.252-.438.594-.51 1.027h2.938zm7.015-.805c-.352-.2-.7-.354-1.043-.462a3.12 3.12 0 0 0-.924-.162c-.224 0-.403.04-.54.12a.392.392 0 0 0-.203.36c0 .176.092.312.276.408.184.096.483.204.9.324.455.137.83.27 1.126.403.296.132.552.328.768.588.216.26.324.603.324 1.027 0 .64-.246 1.139-.738 1.495-.491.356-1.121.534-1.889.534a4.966 4.966 0 0 1-1.523-.234 3.924 3.924 0 0 1-1.271-.666l.6-1.25c.327.257.693.455 1.097.595.404.14.786.21 1.145.21.248 0 .446-.042.594-.126a.409.409 0 0 0 .222-.378c0-.184-.094-.328-.282-.432-.188-.104-.49-.217-.905-.337a9.153 9.153 0 0 1-1.098-.384 1.957 1.957 0 0 1-.75-.582c-.207-.26-.311-.599-.311-1.015 0-.64.24-1.137.72-1.489.48-.352 1.087-.528 1.822-.528.44 0 .88.062 1.32.186.44.124.84.302 1.199.534l-.636 1.261zm1.92-1.897h1.846v6.46h-1.847v-6.46zm.91-2.87a.97.97 0 0 1 .726.288c.188.192.282.44.282.745 0 .304-.094.552-.282.744a.97.97 0 0 1-.725.288.946.946 0 0 1-.714-.294 1.025 1.025 0 0 1-.282-.738c0-.304.094-.553.282-.745a.956.956 0 0 1 .714-.288zm8.756 2.87v5.86c0 .608-.144 1.138-.432 1.59-.288.453-.692.801-1.211 1.045-.52.244-1.12.367-1.8.367-.527 0-1.029-.076-1.504-.229a5.08 5.08 0 0 1-1.302-.624l.684-1.297a3.38 3.38 0 0 0 2.003.649c.527 0 .947-.13 1.26-.39.31-.26.467-.611.467-1.051v-.733a2.138 2.138 0 0 1-.816.697c-.328.16-.703.24-1.127.24a2.77 2.77 0 0 1-1.47-.39 2.627 2.627 0 0 1-.995-1.1c-.236-.471-.354-1.016-.354-1.632 0-.609.118-1.143.354-1.603.236-.46.568-.819.996-1.075a2.804 2.804 0 0 1 1.469-.384c.416 0 .787.082 1.115.246.328.164.604.394.828.69v-.876h1.835zm-3.346 4.719c.447 0 .811-.154 1.091-.462.28-.309.42-.71.42-1.207 0-.496-.14-.9-.42-1.213-.28-.312-.644-.468-1.091-.468-.448 0-.812.156-1.092.468-.28.312-.424.717-.432 1.213.008.496.15.898.426 1.207.276.308.642.462 1.098.462zm9.115-4.791c.72 0 1.293.224 1.72.672.428.449.642 1.049.642 1.801v4.059h-1.847v-3.518c0-.408-.114-.73-.342-.967-.227-.236-.537-.354-.929-.354-.456.008-.816.166-1.08.474-.263.308-.395.703-.395 1.183v3.182h-1.847v-6.46h1.847v1.129c.448-.785 1.191-1.185 2.23-1.201zm9.678.012c.68 0 1.281.136 1.805.408.524.272.93.657 1.217 1.153.288.496.432 1.073.432 1.729 0 .648-.144 1.223-.432 1.723-.287.5-.693.889-1.217 1.165-.524.276-1.125.414-1.805.414-.687 0-1.293-.138-1.817-.414a2.972 2.972 0 0 1-1.217-1.165c-.288-.5-.432-1.075-.432-1.723 0-.656.144-1.233.432-1.73.288-.495.693-.88 1.217-1.152.524-.272 1.13-.408 1.817-.408zm0 1.537c-.48 0-.87.164-1.17.492-.299.328-.449.757-.449 1.285 0 .528.15.957.45 1.285.3.328.69.492 1.17.492.47 0 .857-.164 1.156-.492.3-.328.45-.757.45-1.285 0-.528-.15-.957-.45-1.285-.3-.328-.685-.492-1.157-.492zm7.544-2.486a.799.799 0 0 0-.552.192c-.144.128-.216.317-.216.565v.54h1.524v1.285h-1.524v4.887h-1.835v-4.887h-.863V14.24h.863v-.612c0-.465.106-.863.318-1.195.212-.332.498-.584.858-.757.36-.172.76-.258 1.2-.258.415 0 .839.088 1.27.264l-.276 1.441a3.319 3.319 0 0 0-.383-.126 1.501 1.501 0 0 0-.384-.054zm-88.229 13.873h6.393v1.573h-4.498v1.825h4.042v1.573h-4.042v1.861h4.63v1.573h-6.525v-8.405zm7.052 1.957l1.907-.012 1.523 4.707 1.512-4.707h1.835l-2.435 6.46h-1.895l-2.447-6.448zm10.147-.072c1.04 0 1.829.3 2.368.9.54.601.81 1.438.81 2.51 0 .193-.004.34-.012.445h-4.63c.104.408.304.726.6.954.296.229.652.343 1.068.343.303 0 .595-.058.875-.174.28-.117.532-.287.756-.51l.971.984c-.328.368-.726.65-1.193.846a4.01 4.01 0 0 1-1.565.295c-.68 0-1.274-.137-1.781-.409a2.863 2.863 0 0 1-1.176-1.152c-.276-.497-.414-1.07-.414-1.718 0-.656.14-1.234.42-1.735.28-.5.672-.888 1.176-1.164.503-.277 1.079-.415 1.727-.415zm1.439 2.762c-.016-.424-.152-.764-.408-1.02-.256-.257-.596-.385-1.02-.385-.4 0-.733.126-1 .378-.269.253-.439.595-.51 1.027h2.938zm4.797-1.537c.224-.4.516-.704.876-.912.36-.209.78-.317 1.259-.325v1.741a2.525 2.525 0 0 0-.288-.012c-.568 0-1.017.155-1.35.463-.331.308-.497.718-.497 1.23v3.11h-1.847v-6.46h1.847v1.165zm6.56 6.016c-.447 1.129-1.235 1.693-2.362 1.693-.344 0-.656-.05-.936-.15-.28-.1-.551-.258-.815-.474l.78-1.333c.28.232.559.348.839.348.392 0 .675-.192.851-.576l.18-.36-2.674-6.329h1.907l1.69 4.443 1.524-4.443h1.847l-2.83 7.18zm9.787-9.63v8.91h-1.835v-.95a2.28 2.28 0 0 1-.863.763 2.59 2.59 0 0 1-1.176.259c-.607 0-1.141-.139-1.6-.415a2.78 2.78 0 0 1-1.068-1.17c-.252-.505-.378-1.085-.378-1.742 0-.648.124-1.22.372-1.717.248-.496.6-.88 1.055-1.152.456-.273.98-.409 1.571-.409.912 0 1.607.34 2.087 1.021v-3.398h1.835zm-3.442 7.493c.472 0 .857-.167 1.157-.499.3-.332.45-.762.45-1.29 0-.529-.15-.96-.45-1.291-.3-.333-.685-.499-1.157-.499-.48 0-.87.166-1.17.499-.3.332-.453.762-.461 1.29.008.529.162.96.462 1.291.3.332.69.499 1.169.499zm9.03 1.416v-.756a2.07 2.07 0 0 1-.839.624 3.05 3.05 0 0 1-1.187.217c-.68 0-1.22-.187-1.62-.559-.399-.372-.599-.858-.599-1.459 0-.608.214-1.082.642-1.423.428-.34 1.033-.514 1.817-.522h1.775v-.12c0-.344-.114-.61-.342-.799-.228-.188-.562-.282-1.001-.282-.6 0-1.24.188-1.92.565l-.575-1.273a7.706 7.706 0 0 1 1.44-.565c.447-.12.939-.18 1.474-.18.864 0 1.534.204 2.01.613.475.408.717.976.725 1.705l.012 4.214h-1.811zm-1.51-1.236c.384 0 .715-.092.995-.276.28-.185.448-.417.504-.697v-.576h-1.451c-.36 0-.626.058-.798.174-.172.116-.258.302-.258.558 0 .248.09.446.27.595.18.148.426.222.738.222zm7.927 1.957c-.447 1.129-1.235 1.693-2.362 1.693-.344 0-.656-.05-.936-.15-.28-.1-.552-.258-.815-.474l.78-1.333c.279.232.559.348.839.348.391 0 .675-.192.851-.576l.18-.36-2.674-6.329h1.907l1.69 4.443 1.524-4.443h1.847l-2.83 7.18zm5.65-9.126h7.015v1.61h-2.566v6.795h-1.895v-6.796h-2.555v-1.609zm11.585 1.873c.727 0 1.305.224 1.733.673.427.448.641 1.048.641 1.8v4.06h-1.847v-3.519c0-.408-.114-.73-.341-.966-.228-.237-.538-.355-.93-.355-.456.008-.817.167-1.085.475-.268.308-.402.702-.402 1.182v3.182h-1.847v-8.91h1.847v3.591c.448-.792 1.191-1.197 2.23-1.213zm3.957.072h1.847v6.46h-1.847v-6.46zm.912-2.87a.97.97 0 0 1 .726.289c.187.192.281.44.281.744s-.094.553-.281.745a.97.97 0 0 1-.726.288.946.946 0 0 1-.714-.294 1.025 1.025 0 0 1-.282-.739c0-.304.094-.552.282-.744a.956.956 0 0 1 .714-.288zm6.788 2.798c.72 0 1.293.224 1.721.673.428.448.642 1.048.642 1.8v4.06h-1.847v-3.519c0-.408-.114-.73-.342-.966-.228-.237-.538-.355-.93-.355-.455.008-.815.167-1.079.475-.264.308-.396.702-.396 1.182v3.182h-1.847v-6.46h1.847v1.13c.448-.785 1.192-1.186 2.231-1.202zm10.003.072v5.86c0 .608-.144 1.139-.432 1.591-.288.452-.692.8-1.212 1.045-.52.244-1.119.366-1.799.366-.527 0-1.029-.076-1.505-.228a5.08 5.08 0 0 1-1.301-.625l.684-1.296a3.38 3.38 0 0 0 2.003.648c.527 0 .947-.13 1.259-.39.312-.26.468-.61.468-1.05v-.733a2.138 2.138 0 0 1-.816.696c-.328.16-.704.24-1.127.24a2.77 2.77 0 0 1-1.47-.39 2.627 2.627 0 0 1-.995-1.099c-.236-.472-.354-1.016-.354-1.633 0-.608.118-1.142.354-1.603.236-.46.568-.818.995-1.074a2.804 2.804 0 0 1 1.47-.385c.415 0 .787.082 1.115.246.328.165.604.395.828.69v-.876h1.835zm-3.347 4.72c.448 0 .812-.155 1.092-.463.28-.308.42-.71.42-1.207 0-.496-.14-.9-.42-1.212-.28-.313-.644-.469-1.092-.469-.447 0-.811.156-1.091.469-.28.312-.424.716-.432 1.212.008.497.15.899.426 1.207.276.308.642.462 1.097.462zm9.103-2.822c-.351-.2-.7-.355-1.043-.463a3.12 3.12 0 0 0-.924-.162c-.223 0-.403.04-.54.12a.392.392 0 0 0-.203.36c0 .177.092.313.276.409.184.096.483.204.9.324.455.136.83.27 1.127.402.295.132.551.328.767.589.216.26.324.602.324 1.026 0 .64-.246 1.139-.738 1.495-.491.356-1.121.535-1.889.535a4.966 4.966 0 0 1-1.523-.235 3.924 3.924 0 0 1-1.271-.666l.6-1.249c.327.256.693.454 1.097.595.404.14.786.21 1.145.21.248 0 .446-.042.594-.126a.409.409 0 0 0 .222-.379c0-.184-.094-.328-.282-.432-.188-.104-.49-.216-.905-.336a9.153 9.153 0 0 1-1.098-.384 1.957 1.957 0 0 1-.75-.583c-.207-.26-.311-.598-.311-1.014 0-.64.24-1.137.72-1.49.48-.352 1.087-.528 1.822-.528.44 0 .88.062 1.32.186.44.125.84.303 1.199.535l-.636 1.26zM145.001 172.03c.742 0 1.404.154 1.986.463a3.357 3.357 0 0 1 1.356 1.29c.322.552.483 1.181.483 1.89 0 .707-.164 1.336-.493 1.888-.33.552-.788.982-1.377 1.29-.59.31-1.262.463-2.017.463h-3.025v-7.284h3.087zm.042 5.9c.402 0 .764-.095 1.086-.286.322-.19.574-.456.754-.796.18-.34.27-.728.27-1.165 0-.438-.095-.83-.286-1.176a2.054 2.054 0 0 0-.78-.807 2.187 2.187 0 0 0-1.117-.286h-1.413v4.516h1.486zm7.36-4.266c.588 0 1.11.118 1.563.353.454.236.806.57 1.055 1 .25.43.375.93.375 1.498 0 .562-.125 1.06-.375 1.493-.25.434-.6.77-1.055 1.01-.453.24-.975.359-1.564.359-.596 0-1.12-.12-1.575-.36a2.576 2.576 0 0 1-1.055-1.009c-.25-.433-.374-.93-.374-1.493 0-.569.125-1.068.374-1.498.25-.43.601-.764 1.055-1 .454-.235.98-.353 1.575-.353zm0 1.332c-.417 0-.755.142-1.014.426-.26.285-.39.656-.39 1.114 0 .458.13.829.39 1.113.26.285.597.427 1.013.427.409 0 .743-.142 1.003-.427.26-.284.39-.655.39-1.113 0-.458-.13-.83-.39-1.114-.26-.284-.594-.426-1.003-.426zm7.587-1.343c.623 0 1.12.195 1.491.583.371.389.556.909.556 1.561v3.517h-1.6v-3.049c0-.353-.099-.633-.296-.837-.198-.205-.466-.307-.806-.307-.395.007-.707.144-.935.41-.23.268-.344.61-.344 1.026v2.757h-1.6v-5.598h1.6v.978c.389-.68 1.033-1.027 1.934-1.04zm6.673 5.661v-.655c-.187.236-.43.416-.728.541a2.644 2.644 0 0 1-1.029.187c-.589 0-1.056-.161-1.403-.484-.346-.322-.52-.744-.52-1.264 0-.527.186-.938.556-1.233.371-.295.896-.446 1.575-.453h1.538v-.104c0-.298-.098-.529-.296-.692-.197-.163-.487-.245-.868-.245-.52 0-1.074.164-1.663.49l-.499-1.104c.444-.222.86-.385 1.248-.489a4.928 4.928 0 0 1 1.278-.156c.749 0 1.329.177 1.741.531.412.354.622.846.629 1.478l.01 3.652h-1.57zm-1.31-1.071c.333 0 .62-.08.863-.24.242-.16.388-.36.436-.603v-.5h-1.257c-.312 0-.542.05-.691.151-.15.1-.224.262-.224.484 0 .215.078.387.234.515.156.128.369.193.64.193zm4.314-6.65h1.6v7.721h-1.6v-7.721zm8.72 0v7.721h-1.59v-.822c-.2.292-.45.512-.748.661-.298.15-.638.224-1.019.224-.526 0-.989-.12-1.387-.36a2.409 2.409 0 0 1-.925-1.014c-.219-.437-.328-.94-.328-1.509 0-.562.107-1.058.322-1.488.215-.43.52-.763.915-.999a2.604 2.604 0 0 1 1.362-.354c.79 0 1.392.295 1.808.885v-2.945h1.59zm-2.983 6.493a1.29 1.29 0 0 0 1.003-.431c.26-.288.39-.661.39-1.12 0-.457-.13-.83-.39-1.118a1.29 1.29 0 0 0-1.003-.432c-.415 0-.753.144-1.013.432-.26.288-.393.661-.4 1.119.007.458.14.83.4 1.119.26.288.598.431 1.013.431zm12.421 1.228l-.571-1.415h-3.368l-.572 1.415h-1.694l3.16-7.284h1.694l3.108 7.284h-1.757zm-3.398-2.736h2.297l-1.144-2.831-1.153 2.83zm6.33 1.175a.77.77 0 0 1 .576.23c.15.152.224.35.224.593a.831.831 0 0 1-.224.598.762.762 0 0 1-.576.234.758.758 0 0 1-.572-.24.825.825 0 0 1-.229-.592c0-.243.076-.44.229-.594a.775.775 0 0 1 .572-.229zm9.49-5.723h1.559v7.284h-1.497l-3.524-4.683v4.683h-1.57v-7.284h1.497l3.535 4.704v-4.704zm5.654 1.634c.589 0 1.11.118 1.564.353.454.236.806.57 1.055 1 .25.43.374.93.374 1.498 0 .562-.124 1.06-.374 1.493-.25.434-.6.77-1.055 1.01-.454.24-.975.359-1.564.359-.596 0-1.12-.12-1.575-.36a2.576 2.576 0 0 1-1.055-1.009c-.25-.433-.374-.93-.374-1.493 0-.569.125-1.068.374-1.498.25-.43.601-.764 1.055-1 .454-.235.979-.353 1.575-.353zm0 1.332c-.416 0-.754.142-1.013.426-.26.285-.39.656-.39 1.114 0 .458.13.829.39 1.113.26.285.597.427 1.013.427.409 0 .743-.142 1.003-.427.26-.284.39-.655.39-1.113 0-.458-.13-.83-.39-1.114-.26-.284-.594-.426-1.003-.426zm5.654-.27c.194-.348.447-.611.76-.792.311-.18.675-.274 1.09-.28v1.508a2.188 2.188 0 0 0-.249-.01c-.492 0-.882.133-1.17.4-.287.268-.43.623-.43 1.067v2.695h-1.601v-5.598h1.6v1.01zm10.124-1.073c.617 0 1.107.193 1.471.578.364.385.546.907.546 1.566v3.517h-1.59v-3.049c0-.36-.098-.641-.292-.843-.194-.2-.457-.301-.79-.301-.38.007-.682.142-.904.405-.222.264-.332.604-.332 1.02v2.768h-1.59v-3.049c0-.353-.096-.633-.287-.837-.19-.205-.452-.307-.784-.307-.381.007-.685.142-.91.405-.225.264-.338.604-.338 1.02v2.768h-1.6v-5.598h1.6v.968c.388-.673 1.019-1.017 1.892-1.03.471 0 .87.112 1.195.337.326.226.558.543.697.953.18-.424.442-.743.785-.958.343-.215.753-.326 1.231-.333zm6.642 5.661v-.655c-.187.236-.43.416-.727.541a2.644 2.644 0 0 1-1.03.187c-.588 0-1.056-.161-1.403-.484-.346-.322-.52-.744-.52-1.264 0-.527.186-.938.557-1.233.37-.295.895-.446 1.574-.453h1.539v-.104c0-.298-.099-.529-.296-.692-.198-.163-.487-.245-.868-.245-.52 0-1.074.164-1.663.49l-.5-1.104c.444-.222.86-.385 1.248-.489a4.928 4.928 0 0 1 1.278-.156c.749 0 1.33.177 1.741.531.413.354.622.846.63 1.478l.01 3.652h-1.57zm-1.31-1.071c.333 0 .62-.08.863-.24.243-.16.388-.36.437-.603v-.5h-1.258c-.312 0-.542.05-.691.151-.15.1-.224.262-.224.484 0 .215.078.387.234.515.156.128.37.193.64.193zm7.796-4.59c.624 0 1.121.195 1.492.583.37.389.556.909.556 1.561v3.517h-1.6v-3.049c0-.353-.1-.633-.297-.837-.198-.205-.466-.307-.806-.307-.395.007-.706.144-.935.41-.229.268-.343.61-.343 1.026v2.757h-1.6v-5.598h1.6v.978c.388-.68 1.032-1.027 1.933-1.04z" fill="#000"/><g transform="translate(145.915 47.63)"><use fill="#000" filter="url(#c)" xlink:href="#d"/><use fill="url(#e)" xlink:href="#d"/></g><g transform="translate(145.915 47.63)"><use fill="#000" filter="url(#f)" xlink:href="#g"/><use fill="#FF5042" xlink:href="#g"/></g><g fill="#000" transform="translate(268.272 132.154)"><use filter="url(#h)" xlink:href="#i"/><use xlink:href="#i"/></g><g transform="translate(268.272 132.154)"><use fill="#000" filter="url(#j)" xlink:href="#k"/><use fill="#D8D8D8" xlink:href="#k"/></g><g filter="url(#l)" transform="rotate(17 -1046.498 925.478)"><rect fill="#DEE0E7" y="56.065" width="76.478" height="6.007" rx="3.004"/><path d="M76.084 18.205c3.725 16.733 1.636 32.834-1.442 35.892-2.052 2.039-17.323 2.626-45.813 1.762l3.286-23.06c10.715 1.555 17.828 1.555 21.338 0 .816-2.51 1.224-8.438 1.224-17.785 10.963-2.028 18.098-.964 21.407 3.19z" fill="#FFB9B3"/><path fill="#FF847A" d="M54.614 19.222l-.159 5.646 22.93 1.765-.725-5.293zM54.217 28.309l-.727 4.63 24.529 2.818-.226-4.957z"/><path d="M2.326 56.074c3.48-14.144 19.878-25.4 49.196-33.77v34.34c-24.81-.38-41.21-.57-49.196-.57z" fill="#F6F9FC"/><path d="M53.335 47.133a5.208 5.208 0 0 1-1.683 10.134 5.206 5.206 0 0 1-4.776-7.28 6.609 6.609 0 0 1 .032-13.078 5.182 5.182 0 0 1-.861-2.87c0-.56.088-1.1.252-1.605a7.608 7.608 0 0 1-7.86-7.605 7.608 7.608 0 1 1 13.993 4.139 5.208 5.208 0 0 1 .323 10.057 6.584 6.584 0 0 1 1.7 4.426c0 1.363-.412 2.63-1.12 3.682z" fill="#EFF3F7"/><path d="M29.362 30.324l7.48-3.17c0-3.958-1.246-6.92-3.74-8.883 0-4.76-1.644-8.57-3.74-10.052-1.984-3.48-3.994-6.216-6.03-8.207 0 2.993.662 6.02 1.988 9.08-1.122 3.574 1.06 9.18 3.06 10.774-1.039 3.495-.711 6.98.982 10.458z" fill="#FFA94F"/><ellipse fill="#000" cx="32.233" cy="38.445" rx="2.202" ry="3.604"/></g><g transform="translate(206.71 221.758)"><use fill="#000" filter="url(#m)" xlink:href="#n"/><use fill="#106BEE" xlink:href="#n"/></g><g filter="url(#o)" transform="rotate(35 -387.527 550.75)"><rect fill="#DEE0E7" y="56.065" width="76.478" height="6.007" rx="3.004"/><path d="M76.084 18.205c3.725 16.733 1.636 32.834-1.442 35.892-2.052 2.039-17.323 2.626-45.813 1.762l3.286-23.06c10.715 1.555 17.828 1.555 21.338 0 .816-2.51 1.224-8.438 1.224-17.785 10.963-2.028 18.098-.964 21.407 3.19z" fill="#FFB9B3"/><path fill="#FF847A" d="M54.614 19.222l-.159 5.646 22.93 1.765-.725-5.293zM54.217 28.309l-.727 4.63 24.529 2.818-.226-4.957z"/><path d="M2.326 56.074c3.48-14.144 19.878-25.4 49.196-33.77v34.34c-24.81-.38-41.21-.57-49.196-.57z" fill="#F6F9FC"/><path d="M53.335 47.133a5.208 5.208 0 0 1-1.683 10.134 5.206 5.206 0 0 1-4.776-7.28 6.609 6.609 0 0 1 .032-13.078 5.182 5.182 0 0 1-.861-2.87c0-.56.088-1.1.252-1.605a7.608 7.608 0 0 1-7.86-7.605 7.608 7.608 0 1 1 13.993 4.139 5.208 5.208 0 0 1 .323 10.057 6.584 6.584 0 0 1 1.7 4.426c0 1.363-.412 2.63-1.12 3.682z" fill="#EFF3F7"/><path d="M29.362 30.324l7.48-3.17c0-3.958-1.246-6.92-3.74-8.883 0-4.76-1.644-8.57-3.74-10.052-1.984-3.48-3.994-6.216-6.03-8.207 0 2.993.662 6.02 1.988 9.08-1.122 3.574 1.06 9.18 3.06 10.774-1.039 3.495-.711 6.98.982 10.458z" fill="#FFA94F"/><ellipse fill="#000" cx="32.233" cy="38.445" rx="2.202" ry="3.604"/></g><g transform="rotate(16 -536.14 940.944)"><use fill="#000" filter="url(#p)" xlink:href="#q"/><use fill="#5797F3" xlink:href="#q"/></g><g><g filter="url(#r)" transform="rotate(-23 332.044 -743.279)"><path d="M4.415 29.941c-.192 6.933-.124 12.114.205 15.542.189 1.965-2.433 7.69-2.1 9.397.187.962 3.069.523 3.302 1.402 2.513 9.475 7.685 14.212 15.516 14.212 0 6.568-.965 12.337-2.896 17.305l16.222 3.636c2.836-10.93 4.255-18.976 4.255-24.14 1.697-4.252 4.676-7.22 8.934-8.904l-13.19-30.143L4.416 29.94z" fill="#FFB9B3"/><use fill="#000" filter="url(#s)" xlink:href="#t"/><use fill="#FFDDB9" xlink:href="#t"/><g><use fill="#000" filter="url(#u)" xlink:href="#v"/><use fill="#FFDDB9" xlink:href="#v"/></g></g><g transform="translate(265.269 132.154)"><use fill="#000" filter="url(#w)" xlink:href="#x"/><use fill="#106BEE" xlink:href="#x"/></g><g transform="rotate(20 -361.405 1087.975)"><path fill="#FFA94F" d="M0 2.503h2.002v26.53l-1.001 4.039L0 29.034z"/><rect fill="#FF5042" width="2.002" height="3.504" rx="1"/><path fill="#000" d="M1 33.077l.362-1.456H.633z"/></g><path d="M353.596 214.592c3.172-1.57 1.449-8.357-.647-9.73-2.097-1.372-11.957.57-17.9 3.805-5.943 3.235-9.676 8.232-9.04 11.226.637 2.994 6.877-1.119 15.04-3.197 8.163-2.078 9.375-.535 12.547-2.104zM295.037 213.591c3.172-1.57 1.449-8.357-.648-9.73-2.096-1.372-11.956.57-17.9 3.805-5.943 3.235-9.675 8.231-9.039 11.226.637 2.994 6.877-1.119 15.04-3.197 8.162-2.078 9.375-.535 12.547-2.104z" fill="#FFB9B3"/><g transform="translate(265.269 132.154)"><use fill="#000" filter="url(#y)" xlink:href="#z"/><use fill="#5797F3" xlink:href="#z"/></g></g><g><path fill="#FF847A" d="M104.106 240.28h12.012v146.67h-12.012zM167.67 240.28h12.012v146.67H167.67zM378.884 240.28h12.012v146.67h-12.012zM447.954 240.28h12.012v146.67h-12.012z"/><path fill="#FF5042" d="M86.588 220.257h313.318v20.023H86.588z"/><path fill="#FF847A" d="M399.405 220.257h79.08v20.023h-79.08z"/></g><g transform="translate(178.681 143.167)"><rect fill="#DEE0E7" x=".501" y="69.081" width="120.622" height="8.009" rx="4"/><use fill="#000" filter="url(#A)" xlink:href="#B"/><use fill="#EFF3F7" xlink:href="#B"/><g><use fill="#000" filter="url(#C)" xlink:href="#D"/><use fill="#FFF" xlink:href="#D"/></g></g><g><g transform="translate(20.52 317.37)"><ellipse fill="#DEE0E7" cx="47.565" cy="79.634" rx="47.031" ry="3.462"/><use fill="#000" filter="url(#E)" xlink:href="#F"/><use fill="#FFA94F" xlink:href="#F"/><ellipse fill="#000" cx="43.631" cy="6.525" rx="43.631" ry="6.525"/></g><path d="M134.23 159.67c-11.26 5.511-24.94 18.614-41.04 39.31l4.768 15.795-14.368 1.123c-5.891 21.082-5.812 35.394.237 42.934 6.049 7.54 16.858 6.802 32.427-2.216l-5.598-21.524c5.033 3.848 9.749 6.321 14.148 7.418 5.108-15.777 8.389-31.52 9.843-47.233l-13.386 5.394 14.567-22.561c1.888-13.739 1.355-19.885-1.598-18.44z" fill="#00BAD3"/><path d="M89.5 325.88c-3.738-23.743-1.372-59.952 7.098-108.627C84.591 267.358 81.226 303.567 86.5 325.88h3z" fill="#00BAD3"/><path d="M79.671 325.88c3.738-23.743 1.372-59.952-7.097-108.627C84.58 267.358 87.946 303.567 82.67 325.88h-3zM11.418 132.138c11.26 5.511 24.939 18.614 41.039 39.31l-4.768 15.795 14.369 1.123c5.89 21.082 5.812 35.393-.237 42.934-6.049 7.54-16.858 6.802-32.427-2.216l5.597-21.524c-5.032 3.848-9.748 6.321-14.147 7.418-5.108-15.777-8.389-31.521-9.843-47.233l13.386 5.394L9.82 150.578c-1.888-13.739-1.355-19.885 1.598-18.44z" fill="#00BAD3"/><g transform="scale(-1 1) rotate(14 -499.423 -113.177)"><use fill="#000" filter="url(#G)" xlink:href="#H"/><use fill="#4CCEE0" xlink:href="#H"/></g><path d="M101.71 169.994c-7.435 3.667-16.474 12.373-27.117 26.119l3.13 10.475-9.48.758c-3.908 13.993-3.87 23.487.114 28.484 3.984 4.997 11.117 4.496 21.398-1.501l-3.673-14.275c3.317 2.549 6.427 4.185 9.328 4.908 3.385-10.472 5.565-20.92 6.54-31.346l-8.837 3.592 9.633-14.982c1.259-9.117.913-13.194-1.037-12.232z" fill="#99E3ED"/><g transform="scale(-1 1) rotate(1 -7026.744 -6885.124)"><use fill="#000" filter="url(#I)" xlink:href="#J"/><use fill="#4CCEE0" xlink:href="#J"/></g><g transform="rotate(1 -6948.165 213.499)"><use fill="#000" filter="url(#K)" xlink:href="#L"/><use fill="#99E3ED" xlink:href="#L"/></g><path d="M56.148 322.876c3.738-23.742 1.372-59.951-7.098-108.626 12.006 50.104 15.372 86.313 10.098 108.626h-3z" fill="#00BAD3"/><path d="M52.143 325.88c3.738-12.036 1.373-30.39-7.097-55.064 12.006 25.398 15.372 43.753 10.097 55.064h-3zM73.103 325.88c-2.093-12.036-.768-30.39 3.975-55.064-6.723 25.398-8.608 43.753-5.655 55.064h1.68z" fill="#00BAD3"/></g><g><g transform="translate(116.118 354.914)"><ellipse fill="#DEE0E7" cx="33.911" cy="57.779" rx="33.911" ry="2.501"/><use fill="#000" filter="url(#M)" xlink:href="#N"/><use fill="#FFC283" xlink:href="#N"/><ellipse fill="#000" cx="31.46" cy="4.714" rx="31.46" ry="4.714"/></g><path d="M145.495 364.324c2.46-14.055.903-35.49-4.673-64.303 7.904 29.66 10.12 51.094 6.648 64.303h-1.975zM130.785 366.662c2.461-9.327.904-23.552-4.672-42.674 7.904 19.684 10.12 33.909 6.647 42.674h-1.975zM154.978 364.324c-2.461-14.055-.903-35.49 4.672-64.303-7.904 29.66-10.12 51.094-6.647 64.303h1.975z" fill="#B0EDDF"/><g filter="url(#O)" transform="translate(106.108 309.959)"><path d="M21.182 10.8C19.069 2.646 14.252-.891 6.73.19-4.551 1.81 1.839 8.543 1.494 20.613c-.124 4.367-.784 9.058 0 13.59.441 2.546 1.755 6.344 3.942 11.394L21.182 10.8z" fill="#99E3ED"/><path d="M6.069 44.428c-1.031-3.068-1.031-6.225 0-9.474 1.547-4.873 4.322-4.841 6.28-10.308 1.957-5.467 1.968-9.352 6.743-13.06 4.774-3.708 9.734-3.21 12.138-1.605 2.403 1.605 2.804 5.235-2.2 11.74-5.006 6.504-7.909 3.139-13.514 8.683-3.737 3.695-6.886 8.37-9.447 14.024z" fill="#CCF1F6"/></g><path d="M162.004 345.31c2.113-8.154 6.93-11.69 14.45-10.61 11.283 1.622 4.893 8.354 5.237 20.424.125 4.367.785 9.057 0 13.59-.44 2.546-1.754 6.344-3.94 11.393l-15.747-34.796z" fill="#4CCEE0"/><path d="M177.117 378.938c1.031-3.067 1.031-6.225 0-9.473-1.547-4.873-4.322-4.842-6.28-10.309-1.957-5.467-1.969-9.351-6.743-13.06-4.774-3.708-9.734-3.21-12.138-1.605-2.404 1.606-2.804 5.235 2.2 11.74 5.006 6.505 7.909 3.14 13.514 8.683 3.737 3.696 6.886 8.37 9.447 14.024z" fill="#99E3ED"/><g filter="url(#P)" transform="matrix(-1 0 0 1 177.89 295.344)"><path d="M21.182 10.8C19.069 2.646 14.252-.891 6.73.19-4.551 1.81 1.839 8.543 1.494 20.613c-.124 4.367-.784 9.058 0 13.59.441 2.546 1.755 6.344 3.942 11.394L21.182 10.8z" fill="#99E3ED"/><path d="M6.069 44.428c-1.031-3.068-1.031-6.225 0-9.474 1.547-4.873 4.322-4.841 6.28-10.308 1.957-5.467 1.968-9.352 6.743-13.06 4.774-3.708 9.734-3.21 12.138-1.605 2.403 1.605 2.804 5.235-2.2 11.74-5.006 6.504-7.909 3.139-13.514 8.683-3.737 3.695-6.886 8.37-9.447 14.024z" fill="#4CCEE0"/></g><path d="M141.41 347.649c-2.112-8.154-6.929-11.691-14.45-10.61-11.282 1.621-4.893 8.353-5.237 20.423-.124 4.367-.784 9.058 0 13.59.44 2.546 1.755 6.344 3.941 11.394l15.747-34.797z" fill="#4CCEE0"/><path d="M126.298 381.277c-1.032-3.068-1.032-6.226 0-9.474 1.546-4.873 4.322-4.841 6.28-10.308 1.957-5.467 1.968-9.352 6.742-13.06 4.775-3.708 9.735-3.21 12.138-1.605 2.404 1.605 2.805 5.235-2.2 11.74-5.005 6.504-7.908 3.139-13.513 8.683-3.737 3.695-6.886 8.37-9.447 14.024z" fill="#00BAD3"/><g filter="url(#Q)" transform="matrix(-1 0 0 1 157.297 322.235)"><path d="M15.298 7.892C13.772 1.933 10.293-.65 4.861.14-3.287 1.324 1.328 6.243 1.08 15.064c-.09 3.19-.566 6.618 0 9.93.319 1.861 1.267 4.637 2.847 8.327L15.298 7.892z" fill="#CCF1F6"/><path d="M4.678 32.736c-.746-2.263-.746-4.592 0-6.989 1.12-3.594 3.127-3.571 4.543-7.604 1.416-4.033 1.424-6.899 4.878-9.634 3.454-2.736 7.042-2.369 8.78-1.185 1.74 1.185 2.03 3.862-1.591 8.661-3.62 4.799-5.72 2.316-9.776 6.406-2.703 2.726-4.981 6.174-6.834 10.345z" fill="#99E3ED"/></g><g filter="url(#R)" transform="translate(127.29 297.683)"><path d="M15.298 7.892C13.772 1.933 10.293-.65 4.861.14-3.287 1.324 1.328 6.243 1.08 15.064c-.09 3.19-.566 6.618 0 9.93.319 1.861 1.267 4.637 2.847 8.327L15.298 7.892z" fill="#4CCEE0"/><path d="M4.678 32.736c-.746-2.263-.746-4.592 0-6.989 1.12-3.594 3.127-3.571 4.543-7.604 1.416-4.033 1.424-6.899 4.878-9.634 3.454-2.736 7.042-2.369 8.78-1.185 1.74 1.185 2.03 3.862-1.591 8.661-3.62 4.799-5.72 2.316-9.776 6.406-2.703 2.726-4.981 6.174-6.834 10.345z" fill="#00BAD3"/></g></g><g transform="translate(369.875 191.223)"><use fill="#000" filter="url(#S)" xlink:href="#T"/><use fill="#FFF" xlink:href="#T"/><path d="M11.011 8.512a1.001 1.001 0 0 1 1.752-.662 1.001 1.001 0 0 1 1.752.662h.006l-.008.058a.997.997 0 0 1-.056.279c-.204.794-.768 1.515-1.69 2.162-1.17-.693-1.756-1.526-1.756-2.499z" fill="#FF847A"/><ellipse fill="#EFF3F7" cx="12.513" cy="2.253" rx="12.513" ry="2.253"/><path d="M9.057 12.166c.281 0 .532.058.753.175.221.117.393.28.515.49.122.209.183.447.183.715 0 .269-.062.507-.187.717-.125.209-.299.372-.523.489a1.625 1.625 0 0 1-.765.175H7.885v-2.761h1.172zm.016 2.237c.152 0 .29-.037.412-.109a.753.753 0 0 0 .286-.302.928.928 0 0 0 .102-.442.91.91 0 0 0-.108-.445.779.779 0 0 0-.296-.306.83.83 0 0 0-.424-.109h-.536v1.713h.564zm2.792-1.618c.224 0 .422.045.594.134.172.09.306.216.4.379.095.163.142.352.142.568 0 .213-.047.402-.142.566a.977.977 0 0 1-.4.383c-.172.09-.37.136-.594.136-.226 0-.425-.045-.597-.136a.977.977 0 0 1-.4-.383 1.114 1.114 0 0 1-.143-.566c0-.216.048-.405.142-.568a.968.968 0 0 1 .4-.379c.173-.09.372-.134.598-.134zm0 .505a.497.497 0 0 0-.384.162.601.601 0 0 0-.148.422c0 .174.05.314.148.422a.497.497 0 0 0 .384.162.492.492 0 0 0 .381-.162.601.601 0 0 0 .148-.422.601.601 0 0 0-.148-.422.492.492 0 0 0-.38-.162zm2.88-.509c.237 0 .425.074.566.221.14.147.21.345.21.592v1.333h-.607v-1.156a.438.438 0 0 0-.112-.317.405.405 0 0 0-.306-.117.454.454 0 0 0-.355.156.576.576 0 0 0-.13.389v1.045h-.607v-2.122h.607v.37c.147-.257.392-.389.734-.394zM16.22 12c.082 0 .151.028.21.083.057.055.086.13.086.225 0 .042-.007.08-.02.116a1.12 1.12 0 0 1-.059.128l-.28.501h-.296l.186-.497a.275.275 0 0 1-.13-.248.3.3 0 0 1 .086-.221.294.294 0 0 1 .217-.087zm2.055 2.809a.993.993 0 0 1-.262.108 1.146 1.146 0 0 1-.29.038.685.685 0 0 1-.481-.17c-.124-.113-.186-.275-.186-.485v-.982h-.295v-.419h.295v-.583h.604v.583h.576v.423h-.576v.875c0 .163.064.245.193.245.09 0 .188-.026.296-.079l.126.446zM6.808 18.04c.235 0 .42.073.559.22.138.145.207.343.207.593v1.333H6.97v-1.155a.441.441 0 0 0-.11-.32.397.397 0 0 0-.3-.114.436.436 0 0 0-.343.153.58.58 0 0 0-.126.387v1.05h-.604v-1.156a.447.447 0 0 0-.108-.318.387.387 0 0 0-.298-.116.442.442 0 0 0-.345.153.574.574 0 0 0-.129.387v1.05H4v-2.123h.607v.367c.148-.255.387-.385.718-.39.18 0 .33.042.454.127a.696.696 0 0 1 .264.361.769.769 0 0 1 .298-.362.888.888 0 0 1 .467-.127zm2.521 2.146v-.248a.68.68 0 0 1-.276.205 1.004 1.004 0 0 1-.39.071c-.224 0-.402-.061-.533-.183a.624.624 0 0 1-.197-.48c0-.2.07-.355.21-.467.141-.112.34-.17.598-.172h.584v-.04a.32.32 0 0 0-.112-.262c-.075-.061-.185-.092-.33-.092-.197 0-.407.061-.63.185l-.19-.418c.168-.084.326-.146.473-.186.147-.039.31-.059.485-.059.284 0 .505.067.661.201.157.135.236.321.239.56l.004 1.385h-.596zm-.497-.406c.126 0 .235-.03.327-.09a.354.354 0 0 0 .166-.23v-.189h-.477a.476.476 0 0 0-.263.057c-.056.038-.084.1-.084.184 0 .081.03.146.088.195a.37.37 0 0 0 .243.073zm3.03.406l-.513-.864-.273.288v.576h-.607V17.26h.607v1.61l.778-.801h.69l-.777.817.812 1.301h-.718zm1.834-2.142c.341 0 .601.099.779.296.177.197.266.472.266.825 0 .063-.001.111-.004.146h-1.523c.035.134.1.238.198.313a.558.558 0 0 0 .35.113.745.745 0 0 0 .537-.225l.32.323a1.074 1.074 0 0 1-.393.278 1.32 1.32 0 0 1-.515.097c-.223 0-.418-.045-.585-.134a.941.941 0 0 1-.387-.379 1.141 1.141 0 0 1-.136-.564c0-.216.046-.406.138-.57a.967.967 0 0 1 .387-.383c.165-.09.355-.136.568-.136zm.473.908a.48.48 0 0 0-.134-.336.453.453 0 0 0-.335-.126.462.462 0 0 0-.33.124.577.577 0 0 0-.167.338h.966zm4.702-.912c.234 0 .42.073.558.22.138.145.207.343.207.593v1.333h-.603v-1.155a.441.441 0 0 0-.11-.32.397.397 0 0 0-.3-.114.436.436 0 0 0-.344.153.58.58 0 0 0-.126.387v1.05h-.604v-1.156a.447.447 0 0 0-.108-.318.387.387 0 0 0-.298-.116.442.442 0 0 0-.345.153.574.574 0 0 0-.128.387v1.05h-.608v-2.123h.608v.367c.147-.255.386-.385.718-.39.179 0 .33.042.453.127a.696.696 0 0 1 .265.361.769.769 0 0 1 .297-.362.888.888 0 0 1 .468-.127zm2.2.004c.343 0 .602.099.78.296.177.197.266.472.266.825 0 .063-.001.111-.004.146h-1.522c.034.134.1.238.197.313a.558.558 0 0 0 .35.113.745.745 0 0 0 .537-.225l.32.323a1.074 1.074 0 0 1-.393.278 1.32 1.32 0 0 1-.514.097c-.224 0-.42-.045-.586-.134a.941.941 0 0 1-.387-.379 1.141 1.141 0 0 1-.136-.564c0-.216.046-.406.138-.57a.967.967 0 0 1 .387-.383c.166-.09.355-.136.568-.136zm.474.908a.48.48 0 0 0-.134-.336.453.453 0 0 0-.335-.126.462.462 0 0 0-.33.124.577.577 0 0 0-.167.338h.966zM8.79 25.329a.993.993 0 0 1-.263.109 1.146 1.146 0 0 1-.29.037.685.685 0 0 1-.48-.17c-.124-.113-.186-.274-.186-.485v-.982h-.296v-.418h.296v-.584h.603v.584h.576v.422h-.576v.876c0 .163.065.244.194.244.089 0 .188-.026.295-.079l.127.446zm1.727-2.028c.24 0 .43.074.57.221.141.148.211.345.211.592v1.334h-.607v-1.156a.438.438 0 0 0-.113-.318.405.405 0 0 0-.305-.116.46.46 0 0 0-.357.156.57.57 0 0 0-.132.388v1.046h-.608V22.52h.608v1.18c.147-.26.391-.393.733-.399zm1.302.024h.607v2.123h-.607v-2.123zm.3-.943a.32.32 0 0 1 .331.34.32.32 0 0 1-.331.34.311.311 0 0 1-.235-.098.337.337 0 0 1-.093-.242c0-.1.031-.182.093-.245a.315.315 0 0 1 .235-.095zm2.232.92c.237 0 .426.073.566.22.141.148.211.345.211.592v1.334h-.607v-1.156a.438.438 0 0 0-.112-.318.405.405 0 0 0-.306-.116.454.454 0 0 0-.355.156.576.576 0 0 0-.13.388v1.046h-.608v-2.123h.608v.37c.147-.257.392-.388.733-.394zm2.714 2.146l-.513-.864-.272.288v.576h-.607V22.52h.607v1.61l.777-.801h.69l-.776.817.812 1.302h-.718zm.959-2.742h.58v.698l-.107 1.113h-.367l-.106-1.113v-.698zm.284 2.15a.293.293 0 0 1 .303.311.315.315 0 0 1-.084.227.29.29 0 0 1-.22.09.288.288 0 0 1-.216-.092.313.313 0 0 1-.087-.225c0-.092.029-.167.087-.224a.294.294 0 0 1 .217-.087z" fill="#000"/><path d="M26.527 21.525c-2.488 0-4.505-2.69-4.505-6.007 0-3.317 2.017-6.007 4.505-6.007s4.504 2.69 4.504 6.007c0 3.318-2.016 6.007-4.504 6.007zm0-2.002c1.658 0 3.003-1.793 3.003-4.005 0-2.212-1.345-4.005-3.003-4.005-1.659 0-3.003 1.793-3.003 4.005 0 2.212 1.344 4.005 3.003 4.005z" fill="#FFF"/><ellipse fill="#000" cx="12.763" cy="3.504" rx="9.259" ry="1.001"/></g></g></svg>