<svg width="760" height="654" viewBox="0 0 760 654" preserveAspectRatio="none" xmlns="http://www.w3.org/2000/svg"><g fill="none" fill-rule="evenodd"><path d="M762.688 654V0H86.998C9.523 50.088-16.206 97.744 9.81 142.966 48.836 210.8 118.076 210.8 164.718 243.511c46.643 32.71-32.248 151.353 14.633 219.861 46.881 68.509 124.117 57.968 193.87 68.509C442.976 542.42 543.625 645.106 762.689 654z" fill="#F6F9FC"/><path d="M763.688 654V0h-532.69C130.982 115.068 93.983 195.213 120 240.435c39.025 67.834 118.748 98.48 165.39 131.191 46.643 32.71 51.605 117.687 98.486 186.195 46.881 68.509 175.13-20.736 244.884-10.195 69.753 10.54 12.488 96.89 134.928 106.374z" fill="#EFF3F7" opacity=".482"/></g></svg>