<?xml version="1.0" encoding="UTF-8"?>
<svg width="71px" height="69px" viewBox="0 0 71 69" version="1.1" xmlns="http://www.w3.org/2000/svg" xmlns:xlink="http://www.w3.org/1999/xlink">
    <!-- Generator: Sketch 50.2 (55047) - http://www.bohemiancoding.com/sketch -->
    <title>Brand</title>
    <desc>Created with Sketch.</desc>
    <defs></defs>
    <g id="illustración" stroke="none" stroke-width="1" fill="none" fill-rule="evenodd">
        <g id="Mockup-v2" transform="translate(-61.000000, -51.000000)" fill-rule="nonzero">
            <g id="Billboard">
                <g id="Brand" transform="translate(61.000000, 51.000000)">
                    <rect id="Rectangle-path" fill="#FFA94F" transform="translate(15.165216, 34.807897) rotate(-45.000000) translate(-15.165216, -34.807897) " x="4.36862895" y="24.1914416" width="21.5931742" height="21.2329107" rx="1.2"></rect>
                    <rect id="Rectangle-path" fill="#FF5042" transform="translate(55.791423, 34.949661) rotate(-45.000000) translate(-55.791423, -34.949661) " x="44.9948355" y="24.3332058" width="21.5931742" height="21.2329107" rx="1.2"></rect>
                    <path d="M34.6713343,0.345994236 L21.0836096,13.8934582 C20.6235993,14.3581013 20.6235993,15.1050976 21.0836096,15.5697406 L24.4451404,18.9213112 C24.9111643,19.3799584 25.6603806,19.3799584 26.1264045,18.9213112 L38.0328652,7.04913545 C39.4198255,5.65843684 39.4198255,3.41198102 38.0328652,2.02128242 L36.3525983,0.345994236 C35.8865744,-0.112652951 35.1373582,-0.112652951 34.6713343,0.345994236 Z" id="Shape" fill="#000000"></path>
                    <path d="M44.6871208,10.3321037 L31.0993961,23.8795677 C30.6393859,24.3442108 30.6393859,25.0912071 31.0993961,25.5558501 L34.460927,28.9074207 C34.9269509,29.3660679 35.6761671,29.3660679 36.142191,28.9074207 L48.0486517,17.0362392 C49.435612,15.6455406 49.435612,13.3990848 48.0486517,12.0083862 L46.369382,10.3321037 C45.9032393,9.87280191 45.1532635,9.87280191 44.6871208,10.3321037 Z" id="Shape" fill="#000000"></path>
                    <path d="M49.872514,54.6074352 L36.2847893,41.0619597 C35.8186466,40.6026578 35.0686708,40.6026578 34.6025281,41.0619597 L31.2419944,44.412536 C30.7819842,44.8771791 30.7819842,45.6241754 31.2419944,46.0888184 L43.1484551,57.9639769 C44.5432866,59.3468277 46.7964185,59.3468277 48.19125,57.9639769 L49.872514,56.2876945 C50.3351553,55.8225802 50.3351553,55.0725495 49.872514,54.6074352 Z" id="Shape" fill="#000000"></path>
                    <path d="M39.8567275,64.5935447 L26.2690028,51.0460807 C25.8029789,50.5874335 25.0537627,50.5874335 24.5877388,51.0460807 L21.2262079,54.3976513 C20.7661977,54.8622944 20.7661977,55.6092907 21.2262079,56.0739337 L33.1326685,67.9451153 C34.5275001,69.327966 36.780632,69.327966 38.1754635,67.9451153 L39.8567275,66.2688329 C40.3160819,65.8043087 40.3160819,65.0580688 39.8567275,64.5935447 Z" id="Shape" fill="#000000"></path>
                </g>
            </g>
        </g>
    </g>
</svg>