<?xml version="1.0" encoding="UTF-8"?>
<svg width="13px" height="12px" viewBox="0 0 13 12" version="1.1" xmlns="http://www.w3.org/2000/svg" xmlns:xlink="http://www.w3.org/1999/xlink">
    <!-- Generator: Sketch 49 (51002) - http://www.bohemiancoding.com/sketch -->
    <title>Shape</title>
    <desc>Created with Sketch.</desc>
    <defs></defs>
    <g id="Page-1" stroke="none" stroke-width="1" fill="none" fill-rule="evenodd">
        <g id="Mockup-Copy" transform="translate(-951.000000, -3291.000000)" fill="#07BED6" fill-rule="nonzero">
            <g id="Works" transform="translate(135.000000, 1468.000000)">
                <g id="Case-4" transform="translate(0.000000, 1440.000000)">
                    <g id="Project-btn" transform="translate(624.000000, 363.000000)">
                        <path d="M204.999898,25.6999952 C204.999898,25.5611552 204.913259,25.3768052 204.825354,25.2873452 L199.873066,20.1872672 C199.641852,19.9555772 199.267266,19.9287272 198.997714,20.1638672 C198.756719,20.3740772 198.750714,20.7840572 198.973571,21.0123272 L202.948928,25.0998752 L192.619048,25.0998752 C192.277148,25.0998752 192,25.3684952 192,25.6998752 C192,26.0312552 192.277148,26.2999052 192.619048,26.2999052 L202.948928,26.2999052 L198.973571,30.3874652 C198.750745,30.6157052 198.766562,31.0156052 198.997714,31.2358952 C199.241761,31.4684552 199.64538,31.4477552 199.873066,31.2124952 L204.825354,26.1124352 C204.970865,25.9741052 204.997453,25.8408752 204.999898,25.6999952 Z" id="Shape"></path>
                    </g>
                </g>
            </g>
        </g>
    </g>
</svg>