<?xml version="1.0" encoding="UTF-8"?>
<svg width="13px" height="12px" viewBox="0 0 13 12" version="1.1" xmlns="http://www.w3.org/2000/svg" xmlns:xlink="http://www.w3.org/1999/xlink">
    <!-- Generator: Sketch 49 (51002) - http://www.bohemiancoding.com/sketch -->
    <title>Shape</title>
    <desc>Created with Sketch.</desc>
    <defs></defs>
    <g id="Page-1" stroke="none" stroke-width="1" fill="none" fill-rule="evenodd">
        <g id="Mockup-Copy" transform="translate(-1164.000000, -1272.000000)" fill="#F75AB5" fill-rule="nonzero">
            <g id="About" transform="translate(0.000000, 721.000000)">
                <path d="M1176.9999,556.699995 C1176.9999,556.561155 1176.91326,556.376805 1176.82535,556.287345 L1171.87307,551.187267 C1171.64185,550.955577 1171.26727,550.928727 1170.99771,551.163867 C1170.75672,551.374077 1170.75071,551.784057 1170.97357,552.012327 L1174.94893,556.099875 L1164.61905,556.099875 C1164.27715,556.099875 1164,556.368495 1164,556.699875 C1164,557.031255 1164.27715,557.299905 1164.61905,557.299905 L1174.94893,557.299905 L1170.97357,561.387465 C1170.75075,561.615705 1170.76656,562.015605 1170.99771,562.235895 C1171.24176,562.468455 1171.64538,562.447755 1171.87307,562.212495 L1176.82535,557.112435 C1176.97086,556.974105 1176.99745,556.840875 1176.9999,556.699995 Z" id="Shape"></path>
            </g>
        </g>
    </g>
</svg>