<svg width="766" height="601" viewBox="0 0 766 601" preserveAspectRatio="none" xmlns="http://www.w3.org/2000/svg"><defs><linearGradient x1="44.198%" y1="0%" x2="198.431%" y2="216.6%" id="a"><stop stop-color="#F75AB5" offset="0%"/><stop stop-color="#B791E6" offset="69.72%"/><stop stop-color="#9E9FF8" offset="100%"/></linearGradient></defs><g fill="none" fill-rule="evenodd"><path d="M1.71 0H767v600.993C526.832 394.897-21.723 333.385 1.71 0z" fill="url(#a)" transform="translate(-1)"/><path d="M766 199.146v374.115c-90.478 22.008-176.152 24.295-257.023 6.86-218.834-47.178-248.754-115.384-228.795-187.898 36.059-131 115.324-106.088 268.795-132.102C643.75 244.057 700.763 196.013 766 199.146z" fill="#FFBD06" style="mix-blend-mode:darken"/><path d="M292.699 375.462c53.564 0 94.301 4.486 94.301-49.079C387 272.82 304.961 231 251.397 231 197.832 231 163 305.642 163 359.207c0 53.564 76.134 16.255 129.699 16.255z" fill="#07BED6" style="mix-blend-mode:darken"/></g></svg>