<?xml version="1.0" encoding="UTF-8"?>
<svg width="1280px" height="660px" viewBox="0 0 1280 660" version="1.1" xmlns="http://www.w3.org/2000/svg" xmlns:xlink="http://www.w3.org/1999/xlink">
    <!-- Generator: Sketch 49 (51002) - http://www.bohemiancoding.com/sketch -->
    <title>bg-illus</title>
    <desc>Created with Sketch.</desc>
    <defs>
        <linearGradient x1="44.1979919%" y1="0%" x2="198.431141%" y2="216.599687%" id="linearGradient-1">
            <stop stop-color="#F75AB5" offset="0%"></stop>
            <stop stop-color="#B791E6" offset="69.7204416%"></stop>
            <stop stop-color="#9E9FF8" offset="100%"></stop>
        </linearGradient>
        <path d="M806.698563,375.462198 C860.263185,375.462198 901,379.947986 901,326.383365 C901,272.818743 818.96133,231 765.396708,231 C711.832086,231 677,305.641886 677,359.206508 C677,412.771129 753.133942,375.462198 806.698563,375.462198 Z" id="path-2"></path>
    </defs>
    <g id="Page-1" stroke="none" stroke-width="1" fill="none" fill-rule="evenodd">
        <g id="Mockup-Copy">
            <g id="Billboard">
                <g id="bg-illus">
                    <rect id="Rectangle-10" fill="#FFFFFF" x="0" y="0" width="1280" height="660"></rect>
                    <path d="M514.709874,0 L1280,0 L1280,600.992505 C1039.83228,394.896994 491.276951,333.385232 514.709874,0 Z" id="Combined-Shape" fill="url(#linearGradient-1)"></path>
                    <path d="M1280,199.146333 L1280,573.261308 C1189.52216,595.269254 1103.8479,597.555787 1022.97723,580.120908 C804.14344,532.942612 774.222515,464.736808 794.182437,392.222854 C830.24101,261.222854 909.506134,286.135069 1062.97723,260.120908 C1157.74871,244.05664 1214.76315,196.013295 1280,199.146333 Z" id="Combined-Shape" fill="#FFBD06" style="mix-blend-mode: darken;"></path>
                    <g id="Oval-2">
                        <use fill="#07BED6" fill-rule="evenodd" style="mix-blend-mode: darken;" xlink:href="#path-2"></use>
                        <use stroke="#979797" stroke-width="1" xlink:href="#path-2"></use>
                    </g>
                    <g id="noun_250400" transform="translate(740.000000, 403.000000)" fill="#000000" fill-rule="nonzero">
                        <path d="M101.003165,138.048133 L92.7533641,122.776555 C91.2363037,119.829935 88.2200073,118 84.880098,118 C83.4931737,118 82.1062895,118.334282 80.8686691,118.966542 L74.79503,122.072051 C72.7027206,123.141535 71.1521227,124.964381 70.4293372,127.203375 C69.705704,129.444233 69.8981894,131.825835 70.9963737,133.953731 L79.2463741,149.22636 C80.7632266,152.170894 83.7797309,154 87.1186406,154 C88.5066124,154 89.8934489,153.665495 91.1308693,153.033458 L97.2037085,149.928984 C99.2957619,148.860536 100.846576,147.037483 101.570201,144.797677 C102.294873,142.556596 102.101389,140.174993 101.003165,138.048133 Z M75.8789562,131.978878 L75.6343253,131.52515 C75.2001918,130.682021 75.1234728,129.715463 75.4171547,128.803005 C75.7129316,127.889495 76.3415976,127.14824 77.1880659,126.714982 L83.2606976,123.610509 C83.7673599,123.351593 84.312014,123.220056 84.880098,123.220056 C86.2445039,123.220056 87.4747915,123.963175 88.1146128,125.204085 L88.2392953,125.43439 C85.834056,129.452373 75.8789562,131.978878 75.8789562,131.978878 Z M80.7684638,140.92544 C80.7521108,140.929406 80.7407956,140.941721 80.7244428,140.946723 L78.3978181,136.641228 C81.5177101,135.797047 87.9506429,133.725306 90.9447167,130.442524 L93.0531312,134.346287 C90.8545796,138.674132 80.7684638,140.92544 80.7684638,140.92544 Z M96.5823753,143.197824 C96.2876459,144.111334 95.6591878,144.851537 94.8116718,145.284811 L88.7388322,148.389492 C87.0171798,149.273339 84.7930552,148.554641 83.885173,146.798002 L83.2720205,145.663156 C86.5843497,144.742542 92.941611,142.617768 95.7266867,139.296148 L96.3654605,140.477765 C96.799386,141.319859 96.876273,142.286401 96.5823753,143.197824 Z" id="Shape"></path>
                        <g id="Group" transform="translate(0.000000, 63.000000)">
                            <path d="M69.1740663,38.8579545 C68.8288069,37.577689 68.4948779,36.2740055 68.1580121,34.9579909 C66.8552141,29.8695516 65.4930605,24.6196983 63.310547,19.6926812 C63.2469907,19.5496603 63.1987491,19.4016302 63.1343528,19.2598615 C63.1240707,19.2383258 63.1077555,19.2209696 63.0963854,19.1985964 C63.0452075,19.0871531 63.0196585,18.960651 62.9499729,18.8594571 C60.9629534,14.5950455 58.560245,11.1676308 55.6145988,8.39277973 C49.9938068,3.09901755 42.4834425,0.183243364 34.4669875,0.183243364 C25.4539782,0.183243364 16.744272,3.83836217 10.5713625,10.209994 C7.00299073,13.8906207 4.2488938,18.6748243 2.60524522,24.0449106 C0.404064107,31.241607 -0.0433452293,39.298926 1.27375568,47.9933507 C2.02023526,52.9153429 3.28531791,59.3066281 6.45615805,65.0923774 C7.62995296,67.2343022 8.98686348,69.4487943 10.9585718,71.1384535 C11.1458845,71.2975784 11.6190925,71.6172798 12.2059911,71.9877896 C12.5101385,72.1797285 13.0857068,72.5433309 13.5180149,72.8444319 L13.5180149,86.0719301 C13.5180149,87.5155079 14.6918558,88.6855665 16.1399661,88.6855665 L45.6901918,88.6855665 C47.1383542,88.6855665 48.312143,87.5155079 48.312143,86.0719301 C48.312143,84.7793414 48.3182323,83.8421876 48.3243135,83.0160782 C48.3306028,82.1065218 48.3356357,81.3295457 48.3306028,80.3708561 C52.5246766,80.3311347 55.2265475,80.0963317 56.3734911,79.6714564 C60.6147581,78.0982495 62.7819646,71.6438248 62.6682705,66.3684716 C62.6416334,65.113706 61.7229021,64.0550747 60.4816121,63.8468325 C57.1816801,63.2954545 54.8536022,62.1458788 53.7515392,60.5235387 C53.4545294,60.0865395 53.2651163,59.6445153 53.1464371,59.2330237 C53.1780673,59.2330237 53.2097375,59.2330237 53.2416236,59.2330237 L61.0940986,59.2372032 L61.0950987,59.2372032 C62.4408972,59.2372032 63.5674928,58.2233344 63.7048877,56.8899556 L64.3622639,50.4815214 L68.8678224,50.4815214 C69.4803097,50.4815214 70.0732894,50.2680467 70.5444052,49.8770383 C72.2384394,48.4721609 71.764139,46.7743503 69.4813579,39.8095294 C69.3255118,39.3336382 69.2099373,38.9855017 69.1740663,38.8579545 Z M59.3868461,47.6013052 L58.7292618,54.0088938 L53.2416238,54.0057512 C50.062564,54.0057512 50.062564,54.0057512 49.6477071,54.1445846 C48.7985735,54.4264471 48.1533598,55.1206304 47.9352132,55.9843875 C47.836842,56.370371 47.0473201,59.8538104 49.318979,63.3188725 C50.9380788,65.7886504 53.626779,67.5303781 57.3280925,68.5135227 C56.94613,71.7784783 55.5694936,74.3931676 54.5832693,74.7597052 C53.9330225,74.9516442 50.9156422,75.1496608 46.990893,75.1496608 C46.4316798,75.1496608 45.9932904,75.1446357 45.7464102,75.138574 C45.0305106,75.1017719 44.339156,75.3926155 43.8302887,75.8950672 C43.3212094,76.3972956 43.0416028,77.0854171 43.0537693,77.7990465 C43.0999184,80.2514681 43.0917366,81.4123381 43.0804104,82.98052 C43.0793623,83.1356727 43.078522,83.293952 43.0774739,83.4582935 L18.7619171,83.4582935 L18.7619171,72.1347746 C18.8130991,72.0093251 18.8806844,71.8407884 18.9370633,71.7030077 C19.0301975,71.4732139 19.1224874,71.2465466 19.227996,70.985183 C19.3364412,70.7116956 19.4554163,70.4053781 19.5730433,70.1011504 C19.6642891,69.8684372 19.7513381,69.6499376 19.8455606,69.4017507 C19.9724213,69.0659532 20.1024707,68.701298 20.2346164,68.3389399 C20.3259022,68.0867648 20.4168919,67.8477824 20.5091858,67.5845364 C20.6423799,67.2046146 20.7724291,66.8014982 20.9035267,66.4021306 C20.9937243,66.1296801 21.084758,65.8683165 21.171807,65.5885598 C21.3039528,65.1678638 21.4237241,64.7329543 21.5476883,64.2990978 C21.6265557,64.0232973 21.7115082,63.7548348 21.7853426,63.4750622 C21.9082586,63.0156978 22.0106185,62.5502554 22.1182234,62.0846057 C22.1775869,61.8222052 22.2482728,61.5618785 22.3025994,61.299478 C22.4091562,60.7869922 22.4859271,60.2774416 22.5647946,59.7691351 C22.5985651,59.5527252 22.6465986,59.3352786 22.6742879,59.1207511 C22.7684702,58.40106 22.8320266,57.6903499 22.8536308,56.9993091 C22.875023,56.2948843 22.6107314,55.6117879 22.1203239,55.1043111 C21.7587015,54.7296218 21.2978675,54.4753729 20.79697,54.3651739 C20.0595141,54.0272867 12.4056779,50.1660154 14.4222751,39.3123097 C15.2673799,34.7660438 18.3736576,33.8113343 20.8296923,33.8113343 C22.7276104,33.8113343 24.741267,34.4271118 25.962049,35.3795161 C26.5969369,35.8738083 27.4296671,36.035015 28.2194011,35.8399334 C29.0028378,35.6461122 29.6604261,35.0855378 29.9891141,34.3495353 C30.0086179,34.3056264 32.0415744,29.9011292 40.3980476,24.3430761 C40.6449758,24.1787269 40.8928641,24.0317336 41.1395362,23.8837036 L41.3455603,23.7601285 C44.4919018,21.8845843 47.7814633,21.0116308 51.6950902,21.0116308 L51.9470113,21.0126757 C52.4672007,21.0179 53.0152995,21.0321215 53.5671672,21.0586744 C53.6338681,21.0618091 53.6974247,21.0628539 53.7639176,21.066826 C54.2964854,21.0954765 54.8301095,21.1423126 55.3544997,21.2067124 C55.4415487,21.2169539 55.5254451,21.2272033 55.611662,21.2382822 C56.124722,21.3087438 56.6214268,21.4036765 57.0893901,21.5243163 C57.1682615,21.5445998 57.2431401,21.5671804 57.3209633,21.5885087 C57.7849417,21.7212804 58.2180902,21.8806124 58.5981644,22.0807112 C58.6176722,22.0899076 58.6432612,22.0949248 58.662561,22.1051742 C58.6657057,22.1112362 58.667802,22.1183429 58.6698985,22.1246201 C60.5973544,26.571774 61.8581922,31.4887573 63.0768777,36.2514252 C63.4200406,37.5879387 63.7590026,38.9121131 64.1103913,40.2178785 C64.1523436,40.3709334 64.2947233,40.8160924 64.4965065,41.4318618 C65.0055819,42.983525 65.4081082,44.2587734 65.7040701,45.2542491 L61.995379,45.2542491 C60.6506285,45.2542489 59.5240247,46.2679262 59.3868461,47.6013052 Z" id="Shape"></path>
                            <ellipse id="Oval" cx="50.4773009" cy="38.7201659" rx="3.97802439" ry="3.96540909"></ellipse>
                            <path d="M167.394881,25.0015023 C165.751905,19.6353882 162.99796,14.851392 159.428544,11.1686754 C153.255628,4.79704357 144.54593,1.14296959 135.532925,1.14296959 C127.516466,1.14296959 120.006201,4.05874378 114.385313,9.35250595 C111.347465,12.2120401 108.887401,15.7661645 106.863463,20.2174979 C104.571456,25.2599385 103.18665,30.665774 101.846093,35.8940917 C101.506922,37.2172213 101.171097,38.527174 100.807386,39.877901 C97.6876817,51.4667557 98.0983858,51.8056958 99.4605875,52.9297796 C99.868307,53.2655771 100.368156,53.4719528 100.894435,53.5187889 C101.017347,53.5300673 101.03287,53.5321569 105.594648,53.5321569 L106.508138,64.3348469 C106.526597,64.5470773 106.56959,64.7524002 106.634242,64.9464288 C106.788792,70.0746054 109.545826,76.4372403 113.580277,77.9339076 C114.933196,78.4361521 118.87955,78.8813029 121.67035,79.095623 C121.660076,80.6782258 121.667469,82.1544103 121.675599,83.7052359 L121.685665,87.0295665 C121.685665,88.4731284 122.859462,89.6432028 124.307616,89.6432028 L153.859938,89.6432028 C155.30814,89.6432028 156.481889,88.4731284 156.481889,87.0295665 L156.481889,73.8020682 C156.913157,73.5018126 157.485573,73.1405075 157.78888,72.9485527 C158.379763,72.5759531 158.85592,72.2522795 159.043429,72.0919103 C161.012005,70.4053778 162.369117,68.1929915 163.543746,66.0521037 C166.714685,60.2663543 167.979667,53.8740323 168.726245,48.9501417 C170.043253,40.2565626 169.595838,32.1992438 167.394881,25.0015023 Z M121.920383,65.7468393 C123.258836,65.1954615 123.89608,63.6670011 123.342948,62.3336382 C122.789816,60.998377 121.253565,60.3623241 119.919097,60.9155841 C116.628231,62.2683929 113.42359,62.2092256 111.573742,62.0028497 L110.617259,50.6989841 C110.502517,49.3451224 109.366687,48.3048842 108.004534,48.3048842 C108.004534,48.3048842 105.962351,48.3048842 104.10643,48.3048842 C104.460707,46.6896588 105.047605,44.2966119 105.888513,41.1704977 C106.24091,39.8636795 106.581968,38.5321909 106.927019,37.1877332 C108.144865,32.4340545 109.404654,27.5264833 111.326021,23.0862287 C111.328958,23.0791219 111.331054,23.0720072 111.334207,23.0659452 C111.354763,23.054651 111.383288,23.0504715 111.403844,23.0393926 C111.793992,22.8371962 112.240559,22.6757822 112.718797,22.5421731 C112.798716,22.5195926 112.875707,22.4982643 112.956459,22.4767285 C113.437849,22.3562882 113.945884,22.2613636 114.466273,22.1919467 C114.556259,22.1796076 114.643316,22.1695736 114.734565,22.1593241 C115.261052,22.0959694 115.792564,22.0489258 116.311721,22.0223729 C116.385543,22.0184008 116.450996,22.016311 116.523778,22.0131765 C117.056346,21.9887055 117.57864,21.974492 118.053949,21.9703124 C118.4615,21.9642425 118.829204,22.0102492 119.220608,22.023418 C122.76109,22.1388334 125.740663,22.9810548 128.787593,24.7995213 C129.059006,24.9607279 129.331491,25.1210971 129.603752,25.3028027 C137.958341,30.8577211 139.989185,35.2643083 139.994434,35.2743423 C140.306767,36.0308355 140.956174,36.5985167 141.749881,36.8078199 C142.541507,37.0192126 143.388504,36.8446219 144.035846,36.3392429 C144.300154,36.1330824 144.61956,35.9461527 144.960619,35.7694721 C145.067183,35.7155292 145.177925,35.6634607 145.290571,35.612445 C145.546477,35.4959847 145.816001,35.3908108 146.099593,35.2958783 C146.220416,35.255112 146.335159,35.2091133 146.460175,35.1723112 C146.836104,35.0621203 147.227253,34.9722126 147.630819,34.9059306 C147.776176,34.8822973 147.925741,34.8731006 148.073194,34.8557444 C148.348815,34.8231298 148.624229,34.7997118 148.903819,34.7905072 C149.126167,34.7844452 149.34725,34.7813108 149.569597,34.791552 C149.655598,34.7944793 149.741599,34.7986668 149.827808,34.8047287 C150.090003,34.8241746 150.350101,34.8609767 150.607048,34.9059306 C150.695145,34.921189 150.783242,34.9333209 150.870283,34.9517219 C151.117227,35.0048275 151.355881,35.0784317 151.593368,35.1580899 C151.667158,35.1825529 151.744966,35.1946845 151.817812,35.2222822 C151.836215,35.229389 151.850474,35.2427731 151.868942,35.2498799 C152.319494,35.4255155 152.728309,35.65113 153.10315,35.9216901 C153.187039,35.9829552 153.260925,36.0573888 153.341629,36.1228334 C153.615154,36.3463581 153.864131,36.600607 154.092559,36.8793266 C154.189682,36.9987222 154.287013,37.119362 154.37511,37.2479539 C154.574797,37.5369153 154.745999,37.8595438 154.903693,38.1984839 C154.967034,38.3362725 155.042968,38.4608924 155.100228,38.6078856 C155.298874,39.1151391 155.462906,39.6635816 155.575536,40.2699471 C157.592137,51.1257426 149.939397,54.9849241 149.201894,55.3228113 C148.700996,55.4321807 148.239114,55.687259 147.876643,56.0619485 C147.723941,56.2191909 147.6369,56.4172077 147.529296,56.6041216 C147.524254,56.6133262 147.51923,56.620441 147.513981,56.6296295 C147.414761,56.8084076 147.331705,56.9838359 147.276334,57.1810072 C147.117759,57.6445672 147.09217,58.1355172 147.199551,58.6153805 C147.230437,59.1004601 147.258923,59.5842956 147.323528,60.081515 C147.355198,60.3194605 147.407432,60.5603414 147.445391,60.7993239 C147.522158,61.2842122 147.59494,61.7690844 147.695216,62.2560624 C147.757724,62.5584076 147.837644,62.857403 147.908329,63.1587114 C148.007741,63.5844163 148.100927,64.0122111 148.212469,64.4326996 C148.297637,64.7503112 148.391816,65.0555758 148.481801,65.3679712 C148.595487,65.7621065 148.705189,66.1602137 148.824956,66.5441075 C148.927536,66.8709078 149.034917,67.1791076 149.139385,67.4956665 C149.256224,67.8448479 149.369958,68.2001071 149.486733,68.5340222 C149.601267,68.860615 149.713065,69.1608706 149.826751,69.4701232 C149.935204,69.7643168 150.042809,70.0664388 150.147262,70.3441217 C150.272278,70.6728043 150.389949,70.9688804 150.507828,71.2691359 C150.593829,71.4876355 150.679829,71.7142869 150.760789,71.9154303 C150.910354,72.2890827 151.048589,72.6290597 151.175478,72.9372595 C151.193946,72.984303 151.219535,73.0476657 151.237986,73.0924122 L151.237986,84.4159311 L126.92139,84.4159311 L126.919501,83.6797292 C126.907163,81.3784721 126.896841,79.2436621 126.946146,76.6668119 C126.959349,75.9531986 126.678702,75.2650771 126.170667,74.7617957 C125.662648,74.2595512 124.97757,73.9827138 124.253493,74.0053025 C122.954696,74.0379251 116.514544,73.4131506 115.410441,73.0353346 C114.372943,72.650388 112.870458,70.1663966 112.206784,67.3037277 C114.718242,67.4507121 118.251539,67.2577202 121.920383,65.7468393 Z" id="Shape"></path>
                            <ellipse id="Oval" cx="119.522699" cy="39.6778027" rx="3.97802439" ry="3.96540909"></ellipse>
                            <path d="M145.833461,50.5672497 C146.079045,50.6377113 146.325925,50.6724237 146.568612,50.6724237 C147.704482,50.6724237 148.751326,49.9311969 149.085055,48.7897727 C149.736558,46.5621199 150.275207,43.4123723 150.297868,43.2796006 C150.539499,41.8565296 149.578815,40.5078922 148.151017,40.2657672 C146.726355,40.0382704 145.370491,40.982531 145.127596,42.4058095 C145.122554,42.4352894 144.616616,45.3920455 144.050282,47.3257119 C143.645706,48.7111594 144.443574,50.1628729 145.833461,50.5672497 Z" id="Shape"></path>
                            <path d="M23.6421447,49.5493927 C23.3964769,49.6198703 23.1495967,49.6545667 22.9069093,49.6545667 C21.7711238,49.6545667 20.7241877,48.9133398 20.3904626,47.7719157 C19.7389596,45.5442628 19.2003065,42.3945153 19.1776541,42.2617436 C18.9360151,40.8386725 19.8966983,39.4898277 21.3245086,39.2479101 C22.7491704,39.020206 24.1052429,39.964674 24.3479301,41.3879525 C24.3529672,41.4174324 24.8588976,44.3741884 25.4252401,46.307871 C25.8299033,47.6933025 25.0319477,49.1450161 23.6421447,49.5493927 Z" id="Shape"></path>
                        </g>
                        <path d="M90.7099605,54.6308188 L105.61724,54.6308188 C116.305199,54.6308188 125,45.9072234 125,35.1838569 L125,19.4469579 C125,8.72359143 116.305199,0 105.61724,0 L56.3827516,0 C45.6949934,0 37,8.72359143 37,19.4469579 L37,35.1838569 C37,45.9072234 45.6949934,54.6308188 56.3827516,54.6308188 L67.6335437,54.6308188 C67.2190678,58.5481726 66.4609459,65.4506848 65.9064888,68.9603862 C65.7837015,69.7374202 66.0137769,70.5279115 66.5336541,71.1161568 C67.0319492,71.6798047 67.7450201,72 68.4928865,72 C68.5257796,72 68.5595198,71.9989494 68.592205,71.9978987 C68.7558629,71.9917955 84.4338863,71.1994114 90.7099605,54.6308188 Z M71.5849494,66.1764235 C72.3185155,60.4596483 73.1053498,52.6722421 73.1462122,52.2677493 C73.2210148,51.5275027 72.979621,50.7914587 72.4832123,50.2402175 C71.9870196,49.6889764 71.2811106,49.3748842 70.5403266,49.3748842 L56.3827516,49.3748842 C48.5833834,49.3748842 42.2385815,43.0093136 42.2385815,35.1838569 L42.2385815,19.4469579 C42.2385815,11.6215012 48.5833834,5.25593457 56.3827516,5.25593457 L105.617241,5.25593457 C113.416865,5.25593457 119.761419,11.6215012 119.761419,19.4469579 L119.761419,35.1838569 C119.761419,43.0093136 113.416865,49.3748842 105.617241,49.3748842 L88.8477047,49.3748842 C87.7048585,49.3748842 86.6940159,50.1180662 86.3501621,51.2113015 C83.0944893,61.5610799 75.8168371,65.0226378 71.5849494,66.1764235 Z" id="Shape"></path>
                        <path d="M108,34.5 C108,33.1192016 106.820322,32 105.364445,32 L56.6355553,32 C55.1798871,32 54,33.1192016 54,34.5 C54,35.8807984 55.1798871,37 56.6355553,37 L105.364445,37 C106.820322,37 108,35.8807984 108,34.5 Z" id="Shape"></path>
                        <path d="M56.6536742,23 L91.3463258,23 C92.8120014,23 94,21.8810006 94,20.5 C94,19.1192016 92.8120014,18 91.3463258,18 L56.6536742,18 C55.1879986,18 54,19.1192016 54,20.5 C54,21.8810004 55.1879986,23 56.6536742,23 Z" id="Shape"></path>
                    </g>
                </g>
            </g>
        </g>
    </g>
</svg>