<?xml version="1.0" encoding="UTF-8"?>
<svg width="42px" height="42px" viewBox="0 0 42 42" version="1.1" xmlns="http://www.w3.org/2000/svg" xmlns:xlink="http://www.w3.org/1999/xlink">
    <!-- Generator: Sketch 49 (51002) - http://www.bohemiancoding.com/sketch -->
    <title>Smartphone-icon Copy 2</title>
    <desc>Created with Sketch.</desc>
    <defs></defs>
    <g id="Page-1" stroke="none" stroke-width="1" fill="none" fill-rule="evenodd">
        <g id="Mockup-Copy" transform="translate(-189.000000, -2424.000000)" fill="#FFBD06">
            <g id="Works" transform="translate(135.000000, 1468.000000)">
                <g id="Case-2" transform="translate(2.000000, 661.000000)">
                    <g id="Smartphone-icon-Copy-2" transform="translate(52.000000, 295.000000)">
                        <circle id="Oval-4" fill-opacity="0.1" cx="21" cy="21" r="21"></circle>
                        <path d="M12.6111139,12 C11.5435029,12 10.6666697,12.908709 10.6666697,14.0151503 L10.6666697,26.9696994 L9.55555873,26.9696994 C9.229031,26.9696994 8.99900325,27.2752826 9.00000325,27.5454566 L9.00000325,28.6969711 C9.00000325,29.9628885 10.0007253,31 11.2222252,31 L31.7777781,31 C32.9992779,31 34,29.9628885 34,28.6969711 L34,27.5454566 C33.9999722,27.2439902 33.7353334,26.9697282 33.4444445,26.9696994 L32.3333336,26.9696994 L32.3333336,14.0151503 C32.3333336,12.908709 31.4565003,12 30.3888894,12 L12.6111139,12 Z M12.6111139,13.1515145 L30.3888894,13.1515145 C30.8601671,13.1515145 31.2222226,13.5267354 31.2222226,14.0151503 L31.2222226,14.3030289 L11.7777807,14.3030289 L11.7777807,14.0151503 C11.7777807,13.5267354 12.1398362,13.1515145 12.6111139,13.1515145 Z M11.7777807,15.4545434 L31.2222226,15.4545434 L31.2222226,26.9696994 L11.7777807,26.9696994 L11.7777807,15.4545434 Z M24.0000013,17.7665685 C23.682668,17.7694473 23.4127514,18.0458798 23.4183903,18.3693143 C23.4320014,18.6708067 23.7090847,18.9322753 24.0000013,18.9180829 L25.9010566,18.9180829 L22.3159738,22.2017099 L20.0156129,20.2945025 C19.7198352,20.0065088 19.4332797,20.0249013 19.1909742,20.2045405 L15.3020858,23.6590954 C15.0816414,23.8569543 15.0591136,24.2402935 15.2500025,24.468754 C15.4408913,24.6971856 15.8108079,24.7295432 16.0312524,24.531713 L19.5642241,21.3920513 L21.8125016,23.2542517 C21.9784182,23.5690469 22.4562793,23.6370151 22.6979181,23.3801986 L26.7777787,19.6467757 L26.7777787,21.7968662 C26.7736121,22.1010387 27.0398065,22.381634 27.3333342,22.381634 C27.6268619,22.381634 27.8930286,22.1010387 27.8888897,21.7968662 L27.8888897,18.3423257 C27.8888619,18.0408592 27.6242231,17.7665944 27.3333342,17.7665685 L24.0000013,17.7665685 Z M10.1111142,28.1212139 L32.888889,28.1212139 L32.888889,28.6969711 C32.888889,29.3448707 32.4029447,29.8484855 31.7777781,29.8484855 L11.2222252,29.8484855 C10.5970586,29.8484855 10.1111142,29.3448707 10.1111142,28.6969711 L10.1111142,28.1212139 Z" id="Shape" fill-rule="nonzero"></path>
                    </g>
                </g>
            </g>
        </g>
    </g>
</svg>