<?xml version="1.0" encoding="UTF-8"?>
<svg width="42px" height="42px" viewBox="0 0 42 42" version="1.1" xmlns="http://www.w3.org/2000/svg" xmlns:xlink="http://www.w3.org/1999/xlink">
    <!-- Generator: Sketch 49 (51002) - http://www.bohemiancoding.com/sketch -->
    <title>Smartphone-icon Copy</title>
    <desc>Created with Sketch.</desc>
    <defs></defs>
    <g id="Page-1" stroke="none" stroke-width="1" fill="none" fill-rule="evenodd">
        <g id="Mockup-Copy" transform="translate(-192.000000, -1643.000000)" fill="#F75AB5">
            <g id="Works" transform="translate(135.000000, 1468.000000)">
                <g id="Case-1" transform="translate(2.000000, 121.000000)">
                    <g id="Smartphone-icon-Copy" transform="translate(55.000000, 54.000000)">
                        <circle id="Oval-4" fill-opacity="0.1" cx="21" cy="21" r="21"></circle>
                        <g id="smartphone-icon" transform="translate(14.000000, 8.000000)" fill-rule="nonzero" stroke="#F75AB5" stroke-width="0.5">
                            <path d="M1.98521684,0 L12.0572729,0 C12.4951884,0.0288888889 12.9331038,0.202222222 13.2250475,0.491111111 C13.5753799,0.808888889 13.7797404,1.24222222 13.7797404,1.70444444 L13.7797404,24.2666667 C13.7505461,24.7 13.5753799,25.1333333 13.2542418,25.4511111 C12.9331038,25.7688889 12.4951884,25.9711111 12.0572729,25.9711111 L1.98521684,25.9711111 C1.54730136,25.9422222 1.10938588,25.7688889 0.788247863,25.4511111 C0.467109845,25.1333333 0.262749288,24.7 0.262749288,24.2666667 L0.262749288,1.73333333 C0.291943653,1.27111111 0.49630421,0.837777778 0.817442229,0.52 C1.10938588,0.202222222 1.518107,0.0288888889 1.98521684,0 Z M1.75166192,0.895555556 C1.37213517,1.01111111 1.08019152,1.38666667 1.08019152,1.79111111 C1.08019152,2.39777778 1.08019152,3.00444444 1.08019152,3.64 C5.0506252,3.64 8.99186451,3.64 12.9622982,3.64 C12.9622982,3.03333333 12.9622982,2.42666667 12.9622982,1.79111111 C12.9622982,1.41555556 12.6995489,1.04 12.3492165,0.924444444 C12.2032447,0.866666667 12.0280785,0.837777778 11.8529123,0.837777778 C8.61233777,0.837777778 5.40095758,0.837777778 2.16038303,0.837777778 C2.01441121,0.837777778 1.86843938,0.837777778 1.75166192,0.895555556 Z M1.10938588,4.47777778 C1.10938588,9.96666667 1.10938588,15.4844444 1.10938588,20.9733333 C5.07981956,20.9733333 9.02105888,20.9733333 12.9914926,20.9733333 C12.9914926,15.4844444 12.9914926,9.96666667 12.9914926,4.47777778 C8.99186451,4.47777778 5.02143083,4.47777778 1.10938588,4.47777778 Z M1.10938588,21.84 C1.10938588,22.6488889 1.10938588,23.4577778 1.10938588,24.2666667 C1.13858025,24.7577778 1.57649573,25.1911111 2.07279994,25.1911111 C5.40095758,25.1911111 8.69992086,25.1911111 12.0280785,25.1911111 C12.5243827,25.1911111 12.9622982,24.7577778 12.9914926,24.2666667 C12.9914926,23.4577778 12.9914926,22.6488889 12.9914926,21.84 C8.99186451,21.84 5.02143083,21.84 1.10938588,21.84 Z" id="Shape"></path>
                            <path d="M5.48854068,1.96444444 C5.51773504,1.93555556 5.57612377,1.93555556 5.6345125,1.93555556 C6.56873219,1.93555556 7.50295188,1.93555556 8.43717157,1.93555556 C8.5831434,1.93555556 8.72911523,2.05111111 8.72911523,2.19555556 C8.72911523,2.34 8.61233777,2.48444444 8.43717157,2.48444444 C7.50295188,2.48444444 6.53953783,2.48444444 5.60531814,2.48444444 C5.45934631,2.48444444 5.34256885,2.36888889 5.31337449,2.22444444 C5.28418012,2.13777778 5.37176322,2.02222222 5.48854068,1.96444444 Z" id="Shape"></path>
                            <path d="M3.32815764,9.24444444 C5.86806743,9.24444444 8.40797721,9.24444444 10.947887,9.24444444 C10.947887,9.41777778 10.947887,9.62 10.947887,9.79333333 C8.40797721,9.79333333 5.86806743,9.79333333 3.32815764,9.79333333 C3.32815764,9.59111111 3.32815764,9.41777778 3.32815764,9.24444444 Z" id="Shape"></path>
                            <path d="M3.32815764,10.92 C5.86806743,10.92 8.40797721,10.92 10.947887,10.92 C10.947887,11.0933333 10.947887,11.2955556 10.947887,11.4688889 C8.40797721,11.4688889 5.86806743,11.4688889 3.32815764,11.4688889 C3.32815764,11.2666667 3.32815764,11.1222222 3.32815764,10.92 Z" id="Shape"></path>
                            <path d="M3.32815764,12.5666667 C5.86806743,12.5666667 8.40797721,12.5666667 10.947887,12.5666667 C10.947887,12.74 10.947887,12.9422222 10.947887,13.1155556 C8.40797721,13.1155556 5.86806743,13.1155556 3.32815764,13.1155556 C3.32815764,12.9422222 3.32815764,12.7688889 3.32815764,12.5666667 Z" id="Shape"></path>
                            <path d="M3.32815764,14.3 C5.86806743,14.3 8.40797721,14.3 10.947887,14.3 C10.947887,14.4733333 10.947887,14.6755556 10.947887,14.8488889 C8.40797721,14.8488889 5.86806743,14.8488889 3.32815764,14.8488889 C3.32815764,14.6177778 3.32815764,14.4444444 3.32815764,14.3 Z" id="Shape"></path>
                            <path d="M7.00664767,15.9466667 C8.32039411,15.9466667 9.63414055,15.9466667 10.9770814,15.9466667 C10.9770814,16.12 10.9770814,16.3222222 10.9770814,16.4955556 C9.66333492,16.4955556 8.34958848,16.4955556 7.00664767,16.4955556 C7.00664767,16.3222222 7.00664767,16.12 7.00664767,15.9466667 Z" id="Shape"></path>
                            <path d="M6.74389839,22.36 C7.00664767,22.3022222 7.29859133,22.36 7.56134061,22.4755556 C7.8240899,22.62 7.99925609,22.8511111 8.11603355,23.1111111 C8.20361665,23.4 8.20361665,23.7177778 8.08683919,23.9777778 C7.97006173,24.2666667 7.70731244,24.4977778 7.41536879,24.5844444 C7.12342513,24.7 6.80228712,24.6711111 6.51034346,24.5555556 C6.24759418,24.44 6.01403925,24.2088889 5.89726179,23.92 C5.78048433,23.6022222 5.78048433,23.2266667 5.98484489,22.9088889 C6.10162235,22.6488889 6.393566,22.4177778 6.74389839,22.36 Z M6.80228712,22.9377778 C6.56873219,22.9955556 6.393566,23.1977778 6.36437164,23.4288889 C6.33517727,23.66 6.42276037,23.8911111 6.62712092,24.0355556 C6.80228712,24.1511111 7.03584204,24.18 7.21100823,24.0933333 C7.41536879,24.0066667 7.56134061,23.8333333 7.59053498,23.6022222 C7.61972934,23.4 7.53214625,23.1977778 7.38617442,23.0533333 C7.2402026,22.88 6.97745331,22.8511111 6.80228712,22.9377778 Z" id="Shape"></path>
                        </g>
                    </g>
                </g>
            </g>
        </g>
    </g>
</svg>