<?xml version="1.0" encoding="UTF-8"?>
<svg width="42px" height="42px" viewBox="0 0 42 42" version="1.1" xmlns="http://www.w3.org/2000/svg" xmlns:xlink="http://www.w3.org/1999/xlink">
    <!-- Generator: Sketch 50.2 (55047) - http://www.bohemiancoding.com/sketch -->
    <title>Smartphone-icon Copy 3</title>
    <desc>Created with Sketch.</desc>
    <defs></defs>
    <g id="illustración" stroke="none" stroke-width="1" fill="none" fill-rule="evenodd">
        <g id="Smartphone-icon-Copy-3">
            <circle id="Oval-4" fill="#CCF1F6" cx="21" cy="21" r="21"></circle>
            <path d="M20.4849771,32 L29.3520498,22.2221399 C31.5519349,19.8128471 31.5491596,16.0845983 29.344649,13.7363939 C28.3029877,12.6293965 26.8431817,12.0203628 25.2316594,12.0203628 C23.7181977,12.0203628 22.3249988,12.5590522 21.3110904,13.536468 L20.5044042,14.3121066 L19.6875419,13.5559052 C18.5811237,12.5377638 17.2230785,12 15.758647,12 C14.2035558,12 12.7530008,12.6062569 11.6743355,13.7058497 C9.44947272,16.0753425 9.44299703,19.8165494 11.6484327,22.2332469 L20.4849771,32 Z M12.3348561,14.3546835 C13.2377526,13.4337282 14.4542576,12.9255831 15.758647,12.9255831 C16.9871783,12.9255831 18.1287503,13.3791188 19.0593998,14.2352832 L19.8762621,14.9914846 L20.5164305,15.5838578 L21.1454977,14.9785265 L21.9521839,14.2019622 C22.7930988,13.3911514 23.9568732,12.9450204 25.2307343,12.9450204 C26.584154,12.9450204 27.8052845,13.4513143 28.6693268,14.3694928 C30.5445022,16.3669011 30.5445022,19.5416512 28.6665515,21.5992225 L20.4859022,30.6208812 L12.3320808,21.6084783 C10.4495046,19.5481303 10.4569054,16.3548686 12.3348561,14.3546835 Z" id="Shape-Copy" stroke="#00BAD3" fill="#00BAD3" fill-rule="nonzero"></path>
        </g>
    </g>
</svg>